<?xml version="1.0" encoding="utf-8"?>
<!-- Generator: Adobe Illustrator 27.5.0, SVG Export Plug-In . SVG Version: 6.00 Build 0)  -->
<svg version="1.1" xmlns="http://www.w3.org/2000/svg" xmlns:xlink="http://www.w3.org/1999/xlink" x="0px" y="0px"
	 viewBox="0 0 500 500" style="enable-background:new 0 0 500 500;" xml:space="preserve">
<g id="background">
	<rect style="fill:#E6F4FF;" width="500" height="500"/>
</g>
<g id="objects">
	<g>
		<path d="M429.062,180.832c-1.468-6.534-4.782-12.298-7.466-18.316c-1.346-3.018-2.54-3.372-6.104-2.829
			c-2.262-4.135-2.262-4.135-5.552-3.564c-1.758-2.889-1.757-2.886-5.061-1.698c-1.301,0.468-2.591,0.976-3.914,1.371
			c-12.879,3.846-25.844,7.434-38.204,12.827c-2.359,1.029-4.724,2.045-7.148,3.093c0-7.444,0-14.684,0-22.055
			c16.668,6.002,31.023,3.424,42.303-10.663c6.111-7.632,6.209-27.049,0.489-34.785c-10.782-14.581-25.172-17.242-41.934-11.853
			c0-3.889,0.031-7.717-0.005-11.543c-0.126-13.404-11.815-24.863-25.204-24.85c-24.744,0.024-49.488-0.021-74.233-0.028
			c-19.756-0.005-39.512-0.025-59.268,0.032c-3.594,0.01-7.222-0.289-10.774,0.671c-4.397,1.188-9.017,2.291-12.26,5.531
			c-5.139,5.136-8.17,11.534-8.294,18.951c-0.133,7.991-0.006,15.987-0.004,23.98c0,0.687,0.188,1.725-0.172,2.002
			c-1.921,1.479-1.147,3.496-1.274,5.32c-0.079,1.13-0.015,2.269-0.015,3.404c-1.536-2.202-2.517-4.449-3.606-6.642
			c-2.6-5.235-5.909-9.845-11.101-12.892c-5.314-3.119-9.18-2.929-13.961,0.906c-0.344,0.276-0.63,0.695-1.305,0.605
			c-0.198-0.179-0.491-0.417-0.754-0.686c-4.18-4.258-9.091-4.339-12.996,0.201c-6.747,7.844-12.462,16.377-16.158,26.135
			c-1.936,5.11-3.243,10.41-4.782,15.64c-0.279,0.949-0.497,1.968-1.9,1.868c-5.152-0.369-10.227,1.07-15.392,0.659
			c-1.986-0.158-3.995-0.033-5.994-0.026c-1.503,0.006-2.234,0.578-2.049,2.268c0.225,2.058,0.051,4.13-0.149,6.206
			c-1.023,10.628-2.121,21.252-2.895,31.898c-0.87,11.959-2.022,23.874-3.977,35.707c-1.026,6.212-2.005,12.433-3.069,18.639
			c-0.318,1.853,0.325,2.696,2.182,2.922c1.748,0.212,3.455,0.76,5.203,0.983c13.479,1.721,26.973,3.239,40.604,2.919
			c4.477-0.105,8.959-0.017,13.438-0.017c-6.022,2.135-11.079,5.351-13.626,11.339c-2.501,5.879-2.376,12.042-0.452,18.052
			c3.016,9.424,15.679,14.099,23.559,12.705c5.86-1.037,11.29-2.988,15.161-7.914c5.053-6.429,4.246-13.756,3.188-21.281
			c4.331-0.632,8.458-1.754,12.849-3.353c-0.234,15.391,0.878,30.456,0.208,45.623c-0.666,0.073-1.19,0.198-1.708,0.177
			c-8.608-0.362-17.203,0.221-25.805,0.292c-10.608,0.088-21.217,0.014-31.826,0.031c-1.381,0.002-2.762,0.118-4.142,0.198
			c-1.932,0.112-3.091,1.194-3.669,2.978c-0.67,2.067-0.801,4.215-0.968,6.361c-0.686,8.773,0.031,17.5,0.699,26.24
			c0.402,5.257,0.904,10.524,0.804,15.743c-0.949,0.538-1.809,0.345-2.634,0.35c-5.304,0.032-10.609-0.042-15.91,0.082
			c-6.049,0.142-10.2,3.919-11.129,9.931c-0.65,4.206-0.38,8.431-0.228,12.654c0.109,3.029,0.457,6.081-0.383,9.091
			c-3.534-0.183-6.836,0.006-10.122,0.348c-1.253,0.13-3.007,0.36-2.441,2.23c1.113,3.678,4.757,8.442,10.049,8.429
			c28.136-0.07,56.271-0.013,84.407,0.002c3.203,0.002,4.636-1.284,4.639-4.574c0.003-3.218-0.187-6.417-1.023-9.59
			c-1.044-3.96-0.569-7.924,0.847-11.761c0.236-0.639,0.472-1.38,1.34-1.386c3.046-0.021,6.091-0.008,9.09-0.008
			c0.559,2.017-0.282,3.618-0.334,5.291c-0.488,15.447-0.415,30.901-0.247,46.346c0.077,7.094,3.182,13.485,8.41,18.154
			c4.529,4.045,10.526,5.968,16.612,6.017c24.82,0.197,49.641,0.104,74.463,0.109c19.833,0.004,39.666,0.022,59.499-0.043
			c2.982-0.01,5.98,0.247,8.96-0.37c5.171-1.071,9.993-2.927,14.315-6.007c2.407,4.836,5.41,9.704,12.68,8.57
			c0.902-0.141,1.842-0.031,2.764-0.055c12.814-0.334,25.246-13.188,25.039-25.967c-0.024-1.481,0.322-2.625,1.273-3.766
			c4.094-4.91,5.426-10.536,4.258-16.823c-0.552-2.971-1.982-5.549-3.65-8.359c2.24,0.109,4.073-0.093,5.818-0.732
			c5.719-2.095,11.296-4.554,16.216-8.16c4.804-3.522,8.475-8.149,10.088-13.936c1.629-5.845,2.277-11.918,2.803-17.966
			c0.748-8.597,0.02-17.207,0.089-25.809c0.101-12.752,0.79-25.49-1.484-38.17c-1.007-5.617-2.403-10.843-6.139-15.372
			c-6.446-7.814-15.249-11.339-24.535-14.112c-0.072-0.022-0.152-0.02-0.229-0.022c-9.189-0.359-18.123,0.598-26.375,5.099
			c-0.444,0.242-0.874,0.683-1.679,0.217c-3.346-19.537-6.725-39.225-10.07-58.919c-0.161-0.951-0.021-1.953-0.021-2.931
			c3.115,6.692,3.115,6.692,6.987,5.098c1.976,2.036,1.976,2.036,5.988,1.311c0.125,0.249,0.271,0.512,0.393,0.786
			c1.567,3.51,2.276,3.819,5.797,2.371c4.117-1.694,8.197-3.482,12.334-5.125c1.701-0.676,3.613-0.865,5.251-1.646
			c6.798-3.244,13.806-5.974,20.791-8.767c5.062-2.024,10.152-3.988,14.521-7.415C429.161,183.838,429.474,182.664,429.062,180.832z
			 M107.879,140.963c-1.681,0-3.362,0-5.182,0c-0.028-1.865,0.752-3.383,1.117-4.978c3.12-13.603,9.593-25.499,18.496-36.148
			c1.793-2.145,3.687-3.953,6.865-3.03c1.726,0.501,2.97,1.525,3.997,3.057c-8.012,10.4-13.764,21.62-16.554,34.33
			C115.122,141.011,114.908,140.964,107.879,140.963z M157.05,140.771c-13.104,0-26.23,0-39.348,0
			c2.685-14.399,7.967-27.602,17.448-39.344c2.433,2.576,4.105,5.233,5.428,8.078c2.594,5.581,5.436,10.987,9.314,15.818
			c3.112,3.877,4.599,8.648,6.808,13.021C157.036,139.01,157.235,139.783,157.05,140.771z M167.133,134.029
			c-2.06,1.396-1.317,3.393-1.488,5.21c-0.049,0.52-0.092,1.04-0.158,1.784c-0.872,0-1.487-0.062-2.086,0.011
			c-2.404,0.294-3.381-0.588-4.302-3.065c-1.833-4.93-3.878-9.892-7.164-14.124c-3.22-4.147-5.986-8.544-8.089-13.359
			c-1.696-3.883-3.93-7.446-6.573-10.719c2.537-3.336,5.443-4.187,9.123-2.671c5.952,2.452,9.682,7.173,12.489,12.677
			c1.88,3.686,3.418,7.547,5.071,11.347c0.365,0.838,0.632,1.733,0.829,2.627c0.255,1.163,0.102,2.388,1.6,3.027
			C167.202,127.123,167.888,133.517,167.133,134.029z M356.514,412.122c-0.31-10.122-0.081-20.26-0.081-30.884
			c9.202,5.939,19.461,6.332,29.413,7.852c1.505,0.23,2.498,0.759,3.426,1.921c4.053,5.078,4.877,15.595-0.237,20.983
			c-0.118-0.058-0.307-0.088-0.351-0.183c-3.097-6.821-12.517-7.823-17.261-1.829c-1.422,1.796-1.155,4.473,0.65,6.524
			c4.154,4.72,8.129,5.41,13.69,2.385c0.253-0.138,0.54-0.213,0.982-0.384c0.172,1.741,0.397,3.345-0.258,4.847
			c-3.675,8.419-8.954,15.197-18.348,17.709c-3.548,0.949-7.166,0.754-10.765,0.631c-1.661-0.057-5.503-4.545-5.932-6.575
			c-0.338-1.598-0.216-2.988,0.72-4.494C355.677,424.974,356.718,418.777,356.514,412.122z M383.78,417.169
			c-4.688,2.406-7.018,0.849-10.268-2.976c-0.96-1.13-0.596-2.418,0.587-3.435c1.751-1.505,3.712-2.204,6.587-2.212
			c1.212,0.029,2.427-0.137,3.526,0.678C387.222,411.455,387.066,415.483,383.78,417.169z"/>
		<path style="fill:#1AC5CC;" d="M174.888,347.349c0.903-0.098,1.586-0.134,2.255-0.251
			c63.212-11.016,126.423-22.038,189.634-33.061c3.006-0.524,4.4-2.101,4.429-5.193c0.014-1.451-0.096-2.924-0.344-4.353
			c-7.277-41.947-14.577-83.89-21.88-125.833c-0.357-2.051-0.866-4.052-2.044-5.83c-0.676-1.02-1.533-1.426-2.738-1.224
			c-2.271,0.379-4.554,0.689-6.822,1.084c-39.977,6.962-79.951,13.933-119.927,20.9c-13.326,2.323-26.652,4.637-39.976,6.97
			c-0.805,0.141-1.75,0.022-2.309,0.809c-0.619,0.872-0.146,6.653,0.683,7.558c4.279,4.671,5.915,10.303,6.12,16.479
			c0.253,7.628-0.613,14.926-6.158,20.834c-0.773,0.823-0.741,1.802-0.743,2.804c-0.031,16.065-0.068,32.131-0.091,48.196
			c-0.001,0.748-0.184,1.543,0.385,2.307c0.319,0,0.695,0.053,1.052-0.008c21.875-3.721,43.722-7.616,65.631-11.12
			c13.685-2.189,27.215-5.408,41.116-6.295c2.053-0.131,2.631,0.668,3.092,2.025c0.388,1.143,0.354,2.422,0.608,3.619
			c0.508,2.4-0.643,3.168-2.861,3.528c-13.187,2.136-26.355,4.389-39.529,6.602c-23.073,3.876-46.145,7.751-69.402,11.658
			c-0.227,2.017-0.233,4.292-0.08,6.683c2.053,0.135,3.856-0.615,5.724-0.883c12.462-1.787,24.929-3.544,37.323-5.77
			c16.777-3.013,33.556-6.019,50.321-9.097c5.735-1.053,11.569-1.577,17.216-3.082c2.71-0.722,3.802-0.307,4.797,2.316
			c1.15,3.031,0.465,5.874-1.649,6.786c-0.077,0.033-0.238-0.13-0.504-0.286c0.391-1.731,0.701-3.552,0.148-5.362
			c-0.35-1.145-0.993-2.031-2.344-1.471c-3.314,1.373-6.863,1.623-10.333,2.175c-14.71,2.339-29.446,4.513-44.155,6.853
			c-17.14,2.727-34.231,5.74-51.26,9.095c-1.772,0.349-3.669,0.086-5.332,0.914c0,2.336,0,4.526,0,6.911
			c1.453-0.27,2.718-0.533,3.992-0.736c14.857-2.374,29.73-4.65,44.57-7.128c19.916-3.325,39.807-6.804,59.709-10.216
			c0.835-0.143,1.903-0.425,2.095,0.702c0.219,1.288-0.971,1.313-1.876,1.462c-16.362,2.694-32.73,5.357-49.085,8.092
			c-13.476,2.253-26.82,5.236-40.339,7.27c-6.36,0.957-12.683,2.165-19.119,3.276C174.888,334.49,174.888,340.762,174.888,347.349z"
			/>
		<path style="fill:#3A6286;" d="M348.111,169.877c0-1.027,0.003-1.714,0-2.4c-0.134-28.671-0.265-57.341-0.411-86.012
			c-0.007-1.298,0.081-2.607-0.388-3.877c-2.312-6.259-6.836-10.139-12.967-12.49c-5.459-2.093-11.054-1.274-16.638-1.251
			c-16.373,0.067-32.746,0.122-49.119,0.072c-22.906-0.069-45.815,0.408-68.716-0.268c-3.973-0.117-7.791,0.206-11.548,1.543
			c-7.213,2.567-14.288,9.539-13.181,18.352c0.276,2.195,0.041,4.453,0.043,6.683c0.025,35.051-0.818,70.1-0.203,105.152
			c0.017,0.973-0.237,1.991,0.309,2.962c1.171,0.239,2.278-0.145,3.389-0.338c26.201-4.554,52.403-9.102,78.597-13.694
			c28.313-4.963,56.618-9.969,84.926-14.955C344.111,169.019,346.006,168.949,348.111,169.877z"/>
		<path style="fill:#3A6286;" d="M348.001,320.237c-1.095-0.513-1.775-0.008-2.415,0.572c-0.948,0.861-2.092,1.256-3.32,1.481
			c-11.254,2.055-22.511,4.089-33.759,6.171c-43.708,8.091-87.411,16.207-131.125,24.264c-1.911,0.352-2.705,0.981-2.664,3.093
			c0.227,11.527,0.29,23.057,0.419,34.586c0.007,0.596-0.139,1.234,0.345,1.849c57.316,0,114.682,0,172.222,0
			C347.737,368.077,348.459,344.13,348.001,320.237z"/>
		<path style="fill:#FFFFFF;" d="M173.18,249.382c-3.033,1.048-4.229,2.674-4.094,5.848c0.306,7.212,0.133,14.445,0.128,21.669
			c-0.029,38.972-0.067,77.943-0.099,116.915c-0.007,8.758-0.391,17.539,0.133,26.266c0.374,6.233,3.398,11.789,8.644,15.361
			c4.54,3.091,9.93,4.681,15.476,4.659c22.752-0.092,45.502,0.017,68.253,0.02c22.136,0.003,44.272-0.205,66.408,0.046
			c3.679,0.042,7.22-0.633,10.617-1.825c2.937-1.03,6.151-1.835,8.297-4.317c4.108-4.753,7.039-10.067,6.974-16.602
			c-0.02-2.073-0.088-4.146-0.091-6.219c-0.045-29.9-0.08-59.8-0.134-89.7c-0.001-0.803,0.268-1.681-0.344-2.394
			c-3.762,0.04-3.794,0.041-3.782,3.637c0.079,23.213,0.147,46.427,0.313,69.639c0.014,1.924-0.64,2.411-2.359,2.374
			c-4.303-0.093-8.608-0.13-12.912-0.131c-52.039-0.014-104.078-0.015-156.117-0.031c-1.749,0-3.527,0.175-5.49-0.546
			C173.643,345.931,173.155,297.769,173.18,249.382z"/>
		<path style="fill:#CAD7E0;" d="M373.283,302.948c-0.009,1.152,0.369,1.931,0.512,2.744c0.984,5.565,0.313,9.226-5.783,10.399
			c-3.317,0.638-6.607,1.467-9.949,1.902c-2.151,0.28-2.704,1.132-2.676,3.237c0.243,17.956-0.42,35.921,0.712,53.873
			c0.168,2.661,1.067,4.307,3.273,5.523c4.567,2.517,9.413,4.046,14.616,4.54c3.893,0.37,7.81,0.704,11.642,1.442
			c4.005,0.771,7.931,0.969,11.755-0.456c4.755-1.771,9.357-3.949,13.582-6.77c4.927-3.29,8.696-7.766,10.271-13.455
			c1.778-6.426,2.65-13.104,2.908-19.786c0.308-7.979-0.096-15.967-0.136-23.946c-0.037-7.434,0.318-14.886,0.211-22.333
			c-0.013-0.874,0.235-1.825-0.24-2.491C407.151,300.24,390.458,303.111,373.283,302.948z"/>
		<path style="fill:#3A6285;" d="M166.967,202.325c-0.898-0.841-1.081-1.732-1.076-2.814c0.042-8.148,0.029-16.297,0.043-24.446
			c0.001-0.611-0.169-1.484,0.158-1.791c2.292-2.148,1.082-4.879,1.356-7.349c0.065-0.585,0.12-1.281-0.593-1.605
			c-1.354-0.617-1.196-1.834-1.199-2.976c-0.01-5.227,0-10.454-0.017-15.681c-0.003-0.743,0.207-1.537-0.292-2.171
			c-22.999,0-45.948,0-69.019,0c2.281,16.184,2.733,32.297,3.24,48.408c0.51,16.18,2.086,32.32,1.8,48.651
			c8.385,0,16.728,0,24.981,0c-2.763-12.171-4.375-24.304,6.419-33.512C142.877,198.415,154.547,197.162,166.967,202.325z"/>
		<path style="fill:#FFFFFF;" d="M154.871,352.042c0.778-2.83,0.488-5.764,0.672-8.665c0.133-2.09-0.643-2.565-2.626-2.553
			c-12.837,0.081-25.675,0.058-38.512,0.001c-1.067-0.005-2.978,0.628-2.911-1.205c0.061-1.67,1.904-1.147,3.035-1.15
			c12.53-0.036,25.059-0.018,37.589-0.039c0.892-0.001,1.843,0.264,2.831-0.426c-0.497-3.477,0.734-7.03,0.104-10.706
			c-0.955-0.054-1.711-0.133-2.466-0.133c-5.611-0.007-11.222,0.006-16.834,0.003c-7.61-0.003-15.219-0.007-22.829-0.035
			c-0.897-0.003-2.118,0.077-2.16-1.16c-0.047-1.418,1.228-1.288,2.216-1.326c0.537-0.021,1.076-0.009,1.614-0.009
			c12.453,0,24.906,0.005,37.36-0.008c0.903-0.001,1.837,0.193,2.955-0.345c-0.265-2.864-0.537-5.793-0.822-8.876
			c-1.137,0-2.051,0-2.966,0c-11.761,0-23.523,0-35.284-0.002c-1.439,0-2.913,0.096-4.077-1.251
			c1.171-1.281,2.645-1.204,4.075-1.205c11.454-0.009,22.908,0.016,34.361-0.017c4.482-0.013,3.915,0.644,4.064-3.834
			c0.066-1.997,0.162-3.994,0.295-5.988c0.037-0.55-0.155-1.268,0.773-1.575c0.845,0.789,0.827,1.901,0.886,2.924
			c0.126,2.225,0.137,4.456,0.22,6.683c0.027,0.738-0.136,1.727,0.986,1.746c3.271,0.056,6.543,0.02,9.814,0.02
			c0-4.398,0-8.44,0-12.569c-0.532-0.041-0.903-0.113-1.268-0.091c-11.815,0.717-23.638,1.018-35.476,0.998
			c-8.375-0.014-16.752-0.173-25.13,0.118c-2.433,0.084-3.208,1.3-3.439,3.351c-0.76,6.741-0.819,13.508-0.363,20.258
			c0.668,9.887,1.624,19.753,1.705,29.677c0.024,2.908-0.585,5.727-0.964,8.804c5.361,0,10.498,0,15.636,0
			c11.069,0.001,22.139,0.012,33.208-0.018c0.897-0.002,2.082,0.485,2.493-0.953c0.694-2.428,1.05-4.898,1.163-7.666
			c-1.085,0-1.995,0.001-2.904,0c-12.299-0.009-24.598-0.009-36.897-0.048c-0.931-0.003-2.332,0.195-2.343-1.197
			c-0.011-1.352,1.31-1.228,2.3-1.256c0.691-0.02,1.384-0.009,2.075-0.009c11.685,0,23.369,0.005,35.054-0.009
			C152.992,352.301,153.93,352.485,154.871,352.042z"/>
		<path style="fill:#4D7DA0;" d="M99.02,240.759c0.673-16.305-0.875-32.362-1.757-48.449c-0.885-16.138-0.919-32.333-3.324-48.23
			c-0.967-0.289-1.667-0.393-2.071,0.141c-2.821,3.729-6.793,6.868-6.231,12.342c0.14,1.361-0.098,2.759-0.144,4.141
			c-0.416,12.527-2.444,24.9-3.605,37.357c-0.149,1.6,0.071,3.315-0.706,4.849c-1.135-0.28-0.915-1.075-0.876-1.71
			c0.127-2.07,0.265-4.14,0.48-6.202c1.315-12.609,1.63-25.289,2.672-37.912c0.414-5.013-3.013-7.058-5.841-10.286
			c-3.178,30.253-3.952,60.299-10.579,89.704C77.771,239.358,88.489,238.943,99.02,240.759z"/>
		<path style="fill:#FFFFFF;" d="M353.205,188.168c0.151-0.015,0.302-0.03,0.454-0.045c0-0.739-0.001-1.478,0-2.217
			c0.015-9.378,0.05-18.755,0.043-28.133c-0.019-25.133-0.19-50.266,0.311-75.396c0.107-5.342-1.279-10.181-4.117-14.623
			c-2.015-3.154-4.567-5.584-8.236-7.018c-5.325-2.08-10.699-2.916-16.409-2.905c-43.58,0.083-87.16,0.022-130.74-0.015
			c-5.76-0.005-11.241,1.421-16.05,4.346c-5.628,3.423-8.161,9.194-9.293,15.503c-0.515,2.872-0.141,5.825-0.133,8.744
			c0.098,37.816,0.2,75.632,0.138,113.448c-0.005,3.178,0.982,4.966,4.005,5.946c0.029-0.558,0.077-1.072,0.08-1.587
			c0.243-40.278-0.071-80.554-0.311-120.831c-0.009-1.453-0.246-2.892,0.07-4.361c2.078-9.66,11.016-16.475,21.303-16.882
			c7.751-0.306,15.521-0.173,23.283-0.168c36.817,0.025,73.633,0.066,110.45,0.119c11.038,0.016,22.702,9.583,22.085,21.951
			c-0.927,18.561-0.76,37.196-0.486,55.791c0.187,12.661-1.899,25.447,1.684,37.994C352.293,181.181,352.6,184.717,353.205,188.168z
			"/>
		<path style="fill:#F9C937;" d="M151.416,250.832c1.635,3.325,1.632,3.309,4.634,2.797c4.2-0.716,8.212-2.027,11.945-4.052
			c5.202-2.822,8.77-7.033,10.667-12.721c1.308-3.924,0.774-7.908,0.886-11.877c0.226-8.022-3.377-14.288-9.884-18.422
			c-9.686-6.154-19.927-6.989-30.394-1.444c-6.782,3.593-11.056,8.973-12.211,16.546c-0.459,3.006-0.122,6.128-0.215,9.196
			c-0.091,2.995,0.604,5.861,1.969,8.43c0.699,1.315,1.193,3.254,3.497,3.241c5.116-0.03,10.146,1.179,14.12,4.211
			c2.929,2.235,5.77,2.4,8.978,2.389c1.784-0.006,3.511-0.268,5.218-0.778c0.813-0.243,1.677-0.656,2.819,0.048
			C159.738,251.14,155.66,250.852,151.416,250.832z"/>
		<path style="fill:#F9C937;" d="M355.63,143.811c-0.46,1.869-0.223,3.098,1.935,3.82c5.322,1.783,10.528,3.834,16.35,2.679
			c3.642-0.722,7.151-1.819,10.522-3.302c7.362-3.239,12.338-8.592,14.56-16.476c1.18-4.187,0.609-8.395,0.704-12.593
			c0.143-6.278-1.843-11.961-6.432-16.227c-9.654-8.974-20.756-12.417-33.644-7.667c-3.48,1.283-3.657,1.515-2.876,5.435
			c4.75-1.616,9.492-3.484,14.565-1.723c-0.97,0.791-2.059,0.669-3.11,0.655c-3.523-0.046-6.824,0.93-10.1,2.061
			c-1.016,0.351-1.712,0.819-1.683,2.102c0.288,12.438-0.555,24.849-0.991,37.269c-0.06,1.697,0.634,2.516,2.102,3.066
			c6.859,2.571,13.837,3.284,21.014,1.544c0.96-0.233,1.97-0.878,3.581,0.258C372.812,149.022,364.248,147.448,355.63,143.811z"/>
		<path style="fill:#E1E3E5;" d="M69.881,390.92c20.726,0,41.064,0,61.536,0c-0.063-1.999-0.139-3.868-0.661-5.854
			c-1.017,0-1.929,0-2.841,0c-13.907,0-27.815,0.008-41.722-0.012c-1.324-0.002-2.795,0.265-3.798-1.286
			c1.07-1.417,2.612-1.132,3.986-1.135c13.907-0.028,27.814-0.012,41.721-0.036c0.865-0.002,1.833,0.328,2.697-0.493
			c-0.815-3.182-0.243-6.483-0.471-9.938c-1.033,0-1.863,0-2.694,0c-13.216,0-26.431,0-39.647-0.001c-0.615,0-1.23,0.015-1.844-0.01
			c-0.867-0.035-1.846-0.098-1.814-1.257c0.027-1,0.926-1.091,1.717-1.116c0.921-0.029,1.844-0.022,2.766-0.022
			c13.062,0,26.124,0.001,39.186,0.001c3.241,0,3.241-0.001,3.7-3.441c-0.784-0.441-1.644-0.237-2.467-0.238
			c-8.913-0.017-17.826,0.056-26.738-0.049c-2.959-0.035-6.194,0.099-8.424-2.305c-2.791-3.009-6.15-5.316-9.178-8.023
			c-2.848-2.546-6.318-2.49-9.042,0.145c-1.834,1.775-2.549,4.028-2.604,6.456c-0.091,3.992-0.096,7.99,0.029,11.981
			C73.453,380.03,73.061,385.632,69.881,390.92z"/>
		<path style="fill:#F9C937;" d="M153.053,264.138c1.197-12.755-9.527-19.663-20.043-19.997c-5.808-0.184-11.225,2.096-15.598,6.347
			c-4.709,4.577-4.76,10.364-4.581,16.271c0.307,10.155,9.024,17.026,20.157,17.042
			C143.644,283.816,154.045,277.019,153.053,264.138z"/>
		<path style="fill:#CAD7E0;" d="M392.144,300.125c5.089-0.641,10.13-1.131,15.119-1.947c4.918-0.804,9.899-1.245,14.741-2.532
			c1.607-0.427,2.047-1.228,1.785-2.8c-0.593-3.558-1.079-7.135-1.591-10.706c-1.081-7.551-5.197-13.207-11.293-17.432
			c-4.236-2.935-8.979-5.006-13.78-6.878c-2.628-1.025-5.346-1.107-8.205-0.664c-0.229,2.453,0.712,4.648,0.769,6.937
			c0.195,7.906,0.763,15.796,0.905,23.708C390.664,291.832,390.285,295.977,392.144,300.125z"/>
		<path style="fill:#CAD7E0;" d="M389.656,300.366c-2.146-14.529-0.583-28.964-3.004-42.994c-0.902-0.496-1.672-0.254-2.417-0.186
			c-5.642,0.511-10.975,2.068-16.068,4.568c-1.492,0.733-1.946,1.486-1.637,3.177c1.905,10.418,3.685,20.858,5.502,31.292
			c0.823,4.727,0.819,4.725,5.543,4.724C381.627,300.948,385.677,300.936,389.656,300.366z"/>
		<path style="fill:#FFFFFF;" d="M175.191,307.1c36.472-6.125,72.884-12.239,109.284-18.352c0.104-1.965-0.108-3.518-1.207-5.142
			c-1.992,2.085-4.611,1.077-6.976,1.477c-26.395,4.471-52.801,8.875-79.205,13.291c-6.658,1.113-13.321,2.191-19.975,3.329
			c-0.903,0.155-2.158,0.063-2.122,1.555C175.02,304.543,174.75,305.851,175.191,307.1z"/>
		<path style="fill:#E1E3E5;" d="M133.966,391.028c5.915,0,11.665,0.004,17.414-0.002c2.823-0.003,3.112-0.368,3.046-3.177
			c-0.122-5.201-2.153-10.181-1.475-15.534c-6.821,0-13.374,0-20.099,0c-0.148,2.961-0.32,5.757,0.142,8.585
			c0.22,1.349,0.781,1.778,2.103,1.739c2.761-0.081,5.527-0.04,8.29-0.01c0.863,0.009,1.839,0.129,1.777,1.294
			c-0.051,0.969-0.904,1.125-1.716,1.134c-1.305,0.014-2.611-0.027-3.915,0.017c-1.957,0.066-3.939-0.222-5.895,0.19
			C133.478,387.223,133.65,388.961,133.966,391.028z"/>
		<path style="fill:#C4D8A7;" d="M415.824,179.907c-3.641-7.706-5.108-15.999-8.932-23.591c-6.968,2.851-14.164,4.416-21.363,6.725
			c3.293,8.083,6.296,16.03,9.856,23.752c0.425,0.923,1.048,0.979,1.871,0.7C403.422,185.402,409.529,183.162,415.824,179.907z"/>
		<path style="fill:#C4D8A7;" d="M373.477,186.557c-0.387,1.147-0.539,1.66-0.731,2.158c-1.337,3.479-5.083,5.658-8.85,5.158
			c-4.617-0.613-7.252-3.031-7.517-7.287c-0.127-2.034-0.127-4.244,0.534-6.122c1.332-3.785,3.687-5.937,7.72-5.273
			c1.966,0.324,3.717,1.12,5.585,2.434c-0.923-2.904-1.727-5.433-2.574-8.098c-4.191,1.006-7.721,3.763-12.17,4.297
			c0,4.5,0.228,9.11-0.059,13.687c-0.34,5.425,3.346,9.34,4.472,14.751c2.369-3.173,5.645-3.343,8.356-4.639
			c2.808-1.342,5.759-2.382,8.828-3.626C375.755,191.6,374.547,189.418,373.477,186.557z"/>
		<path style="fill:#C4D8A7;" d="M357.898,184.852c0.043,0.457,0.106,0.914,0.125,1.372c0.156,3.675,2.244,5.982,5.843,6.444
			c3.622,0.465,6.505-1.421,7.519-4.914c0.915-3.151-0.092-5.829-1.907-8.39c-2.63-3.709-7.083-3.937-9.998-0.556
			C357.916,180.624,357.922,182.706,357.898,184.852z"/>
		<path style="fill:#E1E3E5;" d="M167.296,338.435c0-3.917,0-7.481,0-11.068c-3.347,0-6.515,0-9.813,0
			c-0.161,3.176-0.346,6.154-0.44,9.135c-0.028,0.876-0.087,1.944,1.33,1.938C161.275,338.425,164.177,338.435,167.296,338.435z"/>
		<path style="fill:#E1E3E5;" d="M167.298,341.066c-3.321,0-6.415,0-9.615,0c-0.089,3.777,0.111,7.368-0.545,11.085
			c3.512,0,6.76,0,10.161,0C167.298,348.409,167.298,344.828,167.298,341.066z"/>
		<path style="fill:#C4D8A7;" d="M416.612,161.998c2.589,5.688,4.872,11.306,6.807,17.061c0.87,2.586,0.496,3.564-1.931,4.854
			c-3.873,2.059-7.885,3.798-12.044,5.201c-1.335,0.45-2.628,1.021-4.255,1.66c1.224,0.749,2.013,1.34,3.095,0.943
			c6.132-2.249,12.266-4.488,17.793-8.077c0.784-0.509,0.936-0.991,0.714-1.892c-1.704-6.926-5.151-13.127-8.03-19.565
			C418.194,160.915,417.528,161.084,416.612,161.998z"/>
		<path style="fill:#E1E3E5;" d="M156.704,315.547c-0.198,3.128,0.304,5.97,0.706,8.921c3.355,0,6.59,0,9.883,0
			c0-3.047,0-5.917,0-8.921C163.74,315.547,160.334,315.547,156.704,315.547z"/>
		<path style="fill:#E1E3E5;" d="M155.846,363.443c3.644,0,6.993,0,10.342,0c0.716,0,1.171-0.29,1.172-1.068
			c0.003-2.424,0.001-4.848,0.001-7.536c-3.188,0-6.151,0.009-9.114-0.005c-1.02-0.005-1.275,0.672-1.391,1.477
			C156.528,358.572,156.214,360.835,155.846,363.443z"/>
		<path style="fill:#C6C6C6;" d="M100.639,353.247c-4.825,0-9.49,0-14.154,0c3.541,3.101,6.798,6.289,10.208,9.306
			c0.324,0.287,0.823,0.395,1.256,0.538c0.987,0.324,1.683-0.052,1.957-1.02C100.723,359.188,101.105,356.268,100.639,353.247z"/>
		<path style="fill:#C4D8A7;" d="M421.422,181.084c-2.376-7.848-5.891-15.025-8.889-22.409c-0.207-0.511-0.416-1.062-1.145-0.727
			c-1.007,0.464-0.417,1.129-0.185,1.733c2.195,5.714,3.557,11.724,6.185,17.287c0.527,1.116,0.493,2.381,0.437,3.625
			c-0.048,1.063-0.512,1.621-1.494,2.042c-4.581,1.966-9.099,4.078-13.819,5.71c-0.637,0.22-1.443,0.228-2.225,1.54
			C407.72,186.943,414.848,184.889,421.422,181.084z"/>
		<path style="fill:#E1E3E5;" d="M154.313,366.073c-5.901,0-11.656-0.002-17.411,0.001c-3.307,0.001-3.307,0.004-3.425,3.431
			c0.784,0.44,1.647,0.244,2.473,0.247c4.841,0.02,9.692-0.183,14.518,0.083C153.244,369.988,154.146,368.802,154.313,366.073z"/>
		<path style="fill:#C4D8A7;" d="M386.862,200.292c-2.158-1.444-2.773-1.792-3.712-1.475c-4.117,1.389-8.109,3.089-12.19,4.958
			c0.568,1.152,0.367,2.967,2.284,2.211C377.767,204.201,382.222,202.245,386.862,200.292z"/>
		<path style="fill:#C6C6C6;" d="M60.571,384.723c0.949,3.309,3.164,5.6,5.132,5.358c2.167-0.266,3.625-2.332,3.695-5.358
			C66.462,384.723,63.527,384.723,60.571,384.723z"/>
		<path style="fill:#3A6285;" d="M88.476,144.333c-3.308,0-6.242,0-9.557,0c1.906,2.114,3.415,4.064,5.467,5.643
			C85.748,148.098,87.024,146.338,88.476,144.333z"/>
		<path style="fill:#C4D8A7;" d="M365.059,201.698c0.172,1.079,0.693,1.286,1.513,0.964c4.486-1.764,8.973-3.525,13.652-5.362
			C378.053,196.062,372.583,197.732,365.059,201.698z"/>
		<path d="M416.303,257.352c-0.805-0.949-0.249-1.801,0.063-2.615c0.721-1.88,1.821-3.556,3.083-5.103
			c2.3-2.818,4.244-5.815,5.359-9.316c0.255-0.8,0.51-2.095,1.742-1.586c1.038,0.429,0.408,1.469,0.156,2.234
			c-0.917,2.786-2.136,5.426-3.967,7.742c-1.859,2.351-3.64,4.748-4.973,7.45C417.502,256.694,417.257,257.308,416.303,257.352z"/>
		<path d="M420.646,260.77c0.39-1.783,1.607-2.842,2.771-3.879c4.065-3.622,9.065-5.684,13.818-8.154
			c0.585-0.304,1.228-0.419,1.604,0.276c0.388,0.716-0.155,1.157-0.68,1.486c-0.647,0.405-1.331,0.76-2.022,1.088
			c-5.005,2.371-9.808,5.061-13.949,8.802C421.848,260.695,421.492,261.005,420.646,260.77z"/>
		<path d="M426.716,265.491c0.178-0.914,1.011-1.106,1.635-1.47c4.037-2.356,8.38-4.091,12.569-6.14
			c0.625-0.306,1.372-0.63,1.783,0.233c0.398,0.836-0.28,1.27-0.908,1.578c-4.391,2.157-8.787,4.303-13.194,6.426
			C427.832,266.489,427.11,266.419,426.716,265.491z"/>
		<path d="M292.116,231.754c-4.973,0.123-6.105-0.713-7.166-5.548c-0.972-4.429-1.979-8.839-3.727-13.049
			c-1.35-3.251-1.549-6.706-1.672-10.177c-0.075-2.124,0.857-3.488,2.732-4.356c3.296-1.525,6.814-2.381,10.284-3.339
			c10.827-2.99,21.807-5.174,33.011-6.254c3.052-0.294,4.588,1.276,5.871,3.474c1.868,3.201,2.352,6.849,2.685,10.419
			c0.444,4.761,1.399,9.419,2.181,14.114c0.815,4.891-0.202,6.236-5.06,7.24c-11.36,2.349-22.63,5.138-34.11,6.889
			C295.477,231.424,293.792,231.562,292.116,231.754z"/>
		<path style="fill:#F9C937;" d="M292.297,229.344c0.842-0.054,1.693-0.046,2.524-0.17c12.236-1.837,24.358-4.263,36.375-7.204
			c3.016-0.738,3.281-1.172,2.799-4.164c-0.891-5.533-1.874-11.047-2.502-16.624c-0.333-2.963-0.938-5.923-2.456-8.586
			c-0.933-1.637-2.005-2.637-4.081-1.576c-0.992,0.506-2.218,0.576-3.35,0.783c-7.477,1.367-15.03,2.327-22.387,4.329
			c-5.184,1.41-10.387,2.751-15.583,4.119c-1.477,0.389-2.159,1.29-2.046,2.86c0.217,2.997,0.419,6.023,1.588,8.808
			c1.797,4.279,2.867,8.747,3.9,13.238C288.011,229.2,288.114,229.285,292.297,229.344z"/>
		<path d="M341.959,188.248c-0.049,0.732-0.07,1.796-0.911,1.547c-1.608-0.475-1.253-2.226-1.631-3.461
			c-0.197-0.644-0.01-1.702,0.86-1.453C341.894,185.345,341.602,187.042,341.959,188.248z"/>
		<path d="M188.554,276.391c-0.093,1.061-0.153,2.156-1.211,2.065c-1.644-0.142-1.139-1.682-1.281-2.7
			c-0.105-0.754,0.074-1.733,1.069-1.627C188.549,274.28,188.317,275.629,188.554,276.391z"/>
		<path d="M311.702,312.461c0.002,0.731-0.079,1.559-0.831,1.458c-1.576-0.213-1.197-1.699-1.416-2.729
			c-0.135-0.636,0.116-1.402,0.908-1.247C311.776,310.219,311.409,311.593,311.702,312.461z"/>
		<path d="M182.134,288.284c-0.035,0.791-0.153,1.559-1.068,1.463c-0.941-0.099-1.084-0.968-1.094-1.728
			c-0.01-0.684,0.152-1.535,0.996-1.513C182.066,286.535,182.084,287.517,182.134,288.284z"/>
		<path d="M185.038,286.795c0.878,0.141,1.169,0.72,1.206,1.459c0.038,0.76-0.186,1.434-1.105,1.333
			c-0.834-0.092-1.043-0.815-1.059-1.525C184.065,287.409,184.324,286.882,185.038,286.795z"/>
		<path d="M248.505,140.635c-17.289,0-34.578-0.014-51.867,0.023c-1.704,0.004-2.388-0.499-2.127-2.296
			c0.52-3.576,0.577-7.185,0.541-10.799c-0.036-3.624,0.55-4.243,4.273-4.394c7.981-0.325,15.958-0.672,23.954-0.644
			c17.442,0.062,34.856-0.627,52.247-2.083c8.088-0.677,16.211-1.055,24.353-0.461c1.538,0.112,1.605,0.752,1.726,1.743
			c0.525,4.277,0.578,8.579,0.669,12.879c0.016,0.768-0.006,1.537,0.022,2.305c0.135,3.706,0.139,3.7-3.77,3.699
			c-16.674-0.003-33.349-0.001-50.023-0.001C248.505,140.616,248.505,140.625,248.505,140.635z"/>
		<path style="fill:#FF6E3D;" d="M196.724,137.755c1.307,0.596,2.242,0.406,3.147,0.407c24.974,0.012,49.948,0.01,74.923,0.01
			c7.684,0,15.369,0.006,23.053-0.008c1.02-0.002,2.24,0.323,2.225-1.45c-0.044-4.972-0.015-9.945-0.015-15.359
			c-34.555,2.273-68.495,3.977-102.655,3.771C197.235,129.697,197.495,133.749,196.724,137.755z"/>
		<path d="M239.984,171.941c-14.218,0-28.437-0.045-42.655,0.046c-2.265,0.015-3.001-0.697-2.858-2.917
			c0.172-2.679,0.044-5.377,0.064-8.067c0.022-3.026,0.829-3.844,3.792-3.85c21.212-0.05,42.423-0.101,63.634-0.142
			c6.917-0.013,13.834-0.008,20.751,0.006c2.838,0.006,3.599,0.704,3.638,3.507c0.039,2.842-0.177,5.692-0.039,8.527
			c0.111,2.286-0.841,2.931-2.98,2.922c-13.68-0.055-27.361-0.027-41.041-0.026c-0.769,0-1.537,0-2.306,0
			C239.984,171.946,239.984,171.943,239.984,171.941z"/>
		<path style="fill:#FF6E3D;" d="M196.88,169.206c29.15,0,58.123,0,87.285,0c-0.356-3.328,0.672-6.413,0.153-9.561
			c-29.229,0-58.282,0-87.438,0C196.88,162.925,196.88,165.983,196.88,169.206z"/>
		<path d="M320.47,118.409c1.487,0.476,2.317-0.328,2.944-1.819c0.859-2.043,2.619-3.603,3.23-5.813
			c0.152-0.548,0.63-0.887,1.255-0.767c0.748,0.144,0.92,0.725,0.943,1.384c0.028,0.798-0.239,1.517-0.643,2.18
			c-0.519,0.852-1.087,1.674-1.618,2.519c-1.886,3.002-1.883,3.004,0.623,5.347c3.555,3.324,4.186,9.102,1.45,13.287
			c-2.492,3.812-8.577,5.61-12.749,3.766c-3.959-1.75-6.358-7.32-5.246-12.186C311.79,121.353,315.526,118.285,320.47,118.409z"/>
		<path style="fill:#1AC5CC;" d="M321.359,121.323c-3.617-1.544-6.956,0.979-8.061,4.549c-1.247,4.027,0.64,9.211,3.793,10.387
			c3.889,1.451,8.802-0.672,10.225-4.419c1.517-3.995,0.095-7.892-3.521-9.466c-1.002,2.84-1.601,5.763-2.108,8.715
			c-0.145,0.841,0.074,2.033-1.15,2.266c-1.251,0.238-1.402-0.932-1.826-1.705c-0.628-1.145-1.282-2.278-1.866-3.446
			c-0.366-0.731-0.9-1.489-0.24-2.37c1.776-0.555,1.727,1.641,3.079,2.053C320.239,125.712,320.781,123.586,321.359,121.323z"/>
		<path d="M314.203,152.22c1-1.527,1.847-2.886,2.764-4.197c0.45-0.643,1.057-1.241,1.918-0.637
			c0.847,0.594,0.499,1.345,0.092,2.032c-0.43,0.726-0.859,1.458-1.357,2.136c-1.086,1.478-1.212,2.728-0.237,4.54
			c1.547,2.876,1.219,5.966-0.855,8.637c-2.005,2.582-4.73,2.954-7.683,2.109c-1.317-0.377-2.621-0.9-3.823-1.554
			c-2.226-1.21-4.045-2.748-4.058-5.644c-0.015-3.204,1.322-5.642,3.96-7.337C307.929,150.372,311.058,150.024,314.203,152.22z"/>
		<path style="fill:#1AC5CC;" d="M314.753,157.238c-0.465,1.265-0.936,2.527-1.394,3.794c-0.363,1.004-0.554,2.223-1.844,2.409
			c-1.406,0.202-1.975-0.984-2.565-1.952c-0.838-1.375-1.593-2.801-2.388-4.204c-0.31-0.547-0.672-1.146-0.079-1.664
			c0.703-0.613,1.354-0.12,1.785,0.406c0.938,1.147,1.778,2.375,2.756,3.704c0.583-1.43,1.005-2.67,1.585-3.832
			c0.635-1.273-0.011-1.85-1.039-2.284c-2.08-0.877-6.235-0.504-7.734,3.071c-1.27,3.029-0.502,5.071,2.792,6.697
			c0.754,0.373,1.538,0.723,2.346,0.944c1.986,0.542,4.02,0.826,5.534-0.988C316.007,161.541,316.133,159.469,314.753,157.238z"/>
		<path d="M285.261,74.747c-0.563,1.298-1.709,1.259-2.748,1.26c-15.209,0.019-30.417,0.014-45.626,0.011
			c-0.95,0-2.044-0.031-1.985-1.311c0.051-1.112,1.094-1.114,1.95-1.114c15.285-0.001,30.57,0,45.855,0.019
			C283.687,73.614,284.723,73.643,285.261,74.747z"/>
		<path d="M114.038,157.754c1.587,0.777,2.978,3.925,2.523,5.236c-0.138,0.398-0.366,0.708-0.789,0.673
			c-0.266-0.022-0.682-0.193-0.744-0.389C114.468,161.522,113.923,159.757,114.038,157.754z"/>
		<path d="M110.651,156.999c1.332,1.644,0.844,3.273,0.839,4.81c-0.001,0.475-0.341,0.849-0.883,0.863
			c-0.529,0.014-0.884-0.303-0.972-0.785C109.336,160.241,109.207,158.612,110.651,156.999z"/>
		<path d="M115.346,210.982c2.165,1.544,1.773,3.195,1.671,4.729c-0.033,0.496-0.481,0.787-1.003,0.726
			c-0.634-0.074-0.97-0.558-0.958-1.12C115.082,214.052,115.217,212.789,115.346,210.982z"/>
		<path d="M107.002,309.858c-0.012,0.829-0.21,1.617-1.149,1.734c-0.855,0.106-1.227-0.522-1.241-1.308
			c-0.016-0.878,0.069-1.815,1.218-1.85C106.675,308.408,106.96,309.092,107.002,309.858z"/>
		<path d="M76.815,224.704c-0.342,0.763-0.527,1.259-0.78,1.717c-0.246,0.445-0.69,0.614-1.17,0.491
			c-0.503-0.129-0.655-0.557-0.729-1.041c-0.299-1.939,1.005-2.462,2.916-2.535c2.372-0.09,2.228,1.068,2.195,2.558
			c-0.018,0.816-0.239,1.656-1.161,1.69c-0.966,0.036-1.147-0.821-1.193-1.63C76.876,225.653,76.856,225.352,76.815,224.704z"/>
		<path d="M154.558,215.338c-0.145,3.52-0.051,6.808,0.138,10.099c0.058,1.007,0.576,1.365,1.424,1.788
			c2.491,1.242,4.545,2.989,6.202,5.315c2.425,3.403-0.235,9.921-4.234,10.257c-1.396,0.117-3.179,0.038-3.542,2.15
			c-0.071,0.416-0.589,0.781-1.097,0.609c-1.064-0.359-0.619-1.412-0.736-2.083c-5.819-2.064-9.505-4.753-8.295-8.31
			c1.799,0.666,2.036,2.808,3.564,3.703c1.434,0.84,2.74,1.905,4.863,2.315c-0.58-4.132-0.335-8.076-0.382-12.042
			c-1.398-0.776-2.796-0.29-4.13-0.314c-4.864-0.087-7.249-3.016-6.037-7.68c1.12-4.313,3.917-7.031,8.272-8.05
			c0.921-0.215,1.85-0.209,1.869-1.517c0.007-0.479,0.318-0.876,0.89-0.845c0.541,0.029,0.892,0.439,0.923,0.883
			c0.097,1.379,1.089,1.438,2.091,1.623c2.058,0.378,4.025,1.015,5.673,2.375c0.646,0.533,1.522,1.147,0.925,2.074
			c-0.685,1.063-1.498,0.248-2.144-0.223C159.008,216.163,157.028,215.483,154.558,215.338z M152.307,215.224
			c-3.504-0.089-5.73,1.623-7.305,4.218c-0.992,1.635-1.818,3.616-0.815,5.435c1.099,1.993,3.232,2.065,5.303,1.825
			c0.9-0.104,1.803-0.174,2.816-0.27C152.307,222.7,152.307,219.131,152.307,215.224z M155.063,241.044
			c4.028-0.121,5.942-1.772,6.321-4.836c0.294-2.377-3.61-6.837-6.488-6.854C154.666,233.21,154.583,237.062,155.063,241.044z"/>
		<path d="M165.884,245.827c8.61-7.606,8.874-17.457,7.408-28.083c2.704,2.831,3.068,10.99,0.798,17.254
			C172.491,239.413,170.137,243.417,165.884,245.827z"/>
		<path d="M154.071,206.695c-11.854,0.008-19.907,4.793-22.402,17.119c0.088-6.077,2.247-11.103,7.245-14.304
			C143.451,206.603,148.549,205.254,154.071,206.695z"/>
		<path d="M369.126,104.614c0.073-0.367,0.161-0.726,0.214-1.089c0.081-0.56,0.22-1.094,0.886-1.168
			c0.778-0.087,1.172,0.471,1.241,1.093c0.141,1.281,0.918,1.517,2.025,1.686c2.532,0.387,4.932,1.191,6.913,2.924
			c0.658,0.576,1.343,1.282,0.728,2.161c-0.694,0.993-1.513,0.324-2.181-0.181c-2.083-1.571-4.408-2.409-7.207-2.528
			c-0.068,3.913-0.056,7.74,0.218,11.568c0.064,0.899,0.501,1.274,1.301,1.638c2.912,1.324,5.227,3.348,7.135,5.965
			c2.7,3.701,0.097,11.171-4.901,11.591c-1.615,0.136-3.418,0.225-3.784,2.473c-0.067,0.412-0.623,0.744-1.121,0.602
			c-1.266-0.359-0.623-1.551-0.913-2.296c-3.245-1.547-6.935-2.344-8.867-5.79c-0.586-1.045-1.216-2.153-0.419-3.595
			c2.081,0.741,2.326,3.196,4.065,4.201c1.638,0.947,3.145,2.116,5.494,2.697c-0.853-4.768-0.414-9.259-0.598-13.961
			c-1.679,0-3.192,0.013-4.704-0.002c-5.106-0.053-7.833-3.37-6.633-8.323c1.209-4.988,4.35-8.177,9.449-9.292
			C367.99,104.876,368.511,104.754,369.126,104.614z M369.238,107.564c-5.098-0.567-10.443,5.132-9.448,9.877
			c0.174,0.828,0.744,1.321,1.352,1.785c2.597,1.982,5.376,0.694,8.095,0.762C369.238,115.617,369.238,111.581,369.238,107.564z
			 M372.151,123.194c-0.216,4.372-0.4,8.742,0.225,13.095c4.358,0.008,6.675-1.963,7.063-5.464
			C379.731,128.197,375.287,123.157,372.151,123.194z"/>
		<path d="M393.018,110.515c5.659,7.845-0.768,29.962-9.333,31.173C394.128,133.225,394.301,122.1,393.018,110.515z"/>
		<path style="fill:#FFFFFF;" d="M82.907,360.727c0.733,1.234,0.824,2.548-0.232,2.974c-0.909,0.367-2.309,0.046-3.278-0.418
			c-0.869-0.415-0.437-1.519-0.148-2.299c0.236-0.636,1.062-1.183,1.342-0.497C81.258,362.116,82.069,360.743,82.907,360.727z"/>
		<path d="M132.925,251.063c0.8,1.805,2.275,2.024,3.748,2.406c1.645,0.426,3.275,1.048,4.084,3.441
			c-2.625-0.37-4.203-2.538-6.656-2.038c0,2.511-0.002,5.091,0.001,7.672c0.001,0.776,0.62,0.924,1.169,1.224
			c1.693,0.924,3.263,2.025,4.357,3.667c2.157,3.24,0.672,7.329-3.117,8.068c-1.502,0.293-2.312,1.164-3.353,2.49
			c-0.624-2.666-2.995-2.666-4.61-3.716c-1.62-1.053-2.638-2.314-2.319-4.445c1.78,1.906,3.427,3.894,6.457,4.514
			c-0.547-3.149-0.296-6.113-0.36-9.052c-1.163-0.746-2.336-0.236-3.451-0.307c-3.22-0.203-4.941-2.197-4.388-5.35
			c0.568-3.238,2.541-5.422,5.623-6.404C131.316,252.85,132.412,252.638,132.925,251.063z M132.217,254.687
			c-2.101-0.273-3.463,0.712-4.647,1.93c-1.401,1.442-2.329,3.301-1.548,5.206c0.762,1.859,2.747,1.604,4.445,1.453
			c0.586-0.052,1.244,0.126,1.75-0.467C132.217,260.19,132.217,257.531,132.217,254.687z M134.184,265.334
			c-0.102,2.993-0.25,5.917,0.153,8.837c3.061-0.086,4.46-1.112,4.797-3.391C139.442,268.701,137.276,266.232,134.184,265.334z"/>
		<path d="M133.353,248.093c-3.939,0.384-7.827,0.82-11.151,3.201c-3.282,2.352-4.492,6.018-5.725,9.65
			c0.102-4.492,1.773-8.262,5.54-10.672C125.44,248.082,129.273,247.072,133.353,248.093z"/>
		<path d="M140.899,279.324c-4.16,3.906-15.736,2.682-19.472-2.025C127.765,280.848,134.025,281.068,140.899,279.324z"/>
		<path d="M148.523,256.998c3.672,6.29-0.132,18.282-6.002,20.71c2.991-2.54,4.814-5.713,5.723-9.513
			C149.137,264.464,148.753,260.76,148.523,256.998z"/>
		<path d="M149.564,382.449c0.878,0.088,1.874,0.126,1.857,1.245c-0.017,1.099-1.001,1.239-1.85,1.179
			c-0.862-0.06-2.095,0.02-2.084-1.207C147.498,382.434,148.764,382.664,149.564,382.449z"/>
		<path d="M398.303,163.03c7.755-0.238,12.797,5.536,11.248,12.908c-0.14,0.665-0.336,1.376-0.712,1.924
			c-2.453,3.577-6.119,4.003-10.032,3.771c-3.562-0.21-5.938-2.021-6.96-5.388c-0.829-2.734-1.073-5.604-0.731-8.438
			C391.449,165.051,394.489,163.147,398.303,163.03z M392.953,171.418c-0.017,0.307-0.025,0.614-0.053,0.92
			c-0.432,4.68,1.508,7.096,6.169,7.563c1.057,0.106,2.146,0.038,3.207-0.073c2.964-0.309,5.307-2.009,5.66-4.56
			c0.768-5.549,0.907-6.791-2.32-9.094c-1.961-1.399-4.291-1.939-6.744-2.031c-2.454-0.092-4.064,1.105-5.314,3.004
			C392.694,168.462,393.04,169.978,392.953,171.418z"/>
		<g>
			<path d="M304.987,351.957c5.145,0,10.29,0.007,15.435-0.003c2.874-0.005,4.244,1.973,5.231,4.192
				c1.134,2.55,1.596,5.319,1.244,8.097c-0.469,3.698-3.038,5.806-6.874,5.717c-4.301-0.1-8.612-0.185-12.893-0.565
				c-5.602-0.497-11.203-0.487-16.812-0.512c-4.974-0.022-7.532-2.748-7.174-7.701c0.11-1.524,0.361-3.057,0.74-4.537
				c1.016-3.968,3.265-5.542,7.277-5.477c4.608,0.075,9.218,0.017,13.827,0.017C304.988,351.443,304.987,351.7,304.987,351.957z"/>
			<path style="fill:#FF6D3C;" d="M311.654,367.237c3.172-0.263,6.212,0.432,9.307,0.017c1.938-0.26,3.013-1.147,3.327-2.902
				c0.543-3.035-0.08-5.925-1.516-8.636c-0.446-0.843-1.239-0.985-2.139-1.068c-9.497-0.884-19.041-0.679-28.547-1.27
				c-4.504-0.28-5.337,1.177-6.082,5.315c-0.163,0.907-0.361,1.811-0.451,2.726c-0.296,2.993,1.351,4.939,4.334,4.886
				C297.199,366.174,304.483,366.589,311.654,367.237z"/>
			<path style="fill:#FFFFFF;" d="M308.58,362.886c-0.204,1.234-0.896,1.436-1.692,0.992c-1.734-0.967-3.368-1.341-4.984,0.211
				c-0.355,0.342-0.857,0.333-1.254-0.007c-0.388-0.333-0.43-0.783-0.288-1.256c0.745-2.478,2.807-4.101,4.086-6.237
				c0.295-0.493,1.048-0.277,1.371,0.228C307.053,358.752,307.087,361.215,308.58,362.886z"/>
			<path style="fill:#FFFFFF;" d="M292.273,358.502c-0.597-1.987,0.603-2.318,1.785-2.237c1.117,0.077,2.23,0.51,3.297,0.914
				c0.808,0.306,1.482,0.893,1.405,1.884c-0.066,0.861-0.704,1.302-1.439,1.629c-1.245,0.553-2.936,0.556-2.969,2.581
				c-0.007,0.428-0.59,0.674-1.1,0.597c-0.622-0.094-0.857-0.559-1.006-1.106C291.834,361.258,292.07,359.751,292.273,358.502z"/>
			<path style="fill:#FFFFFF;" d="M314.71,359.106c1.043-0.367,1.351-2.544,2.687-1.502c1.23,0.959-0.082,2.227-0.546,3.291
				c-0.428,0.983-0.949,1.926-1.447,2.878c-0.31,0.594-0.779,1.002-1.484,0.751c-0.56-0.2-0.952-0.77-0.734-1.278
				c0.642-1.496-0.263-2.217-1.222-3.044c-0.506-0.436-0.876-1.058-1.22-1.648c-0.294-0.504-0.245-1.075,0.247-1.454
				c0.49-0.378,1.019-0.246,1.485,0.111C313.258,357.807,313.738,358.77,314.71,359.106z"/>
		</g>
		<g>
			<path style="fill:#97A0A5;" d="M261.446,432.771c-1.384,0.17-2.894-0.107-4.424-0.238c-6.524-0.556-9.852-4.689-11.097-10.866
				c-1.068-5.294-0.461-10.478,2.746-15.225c4.693-6.947,14.764-7.359,20.329-3.926c8.932,5.511,9.914,18.919,5.996,25.16
				c-2.89,4.604-7.218,4.958-11.785,5.239C262.679,432.949,262.139,432.832,261.446,432.771z M263.114,430.724
				c0.995-0.076,1.99-0.149,2.985-0.227c3.803-0.298,6.368-2.198,7.932-5.718c2.437-5.485,0.707-14.335-3.754-18.367
				c-5.816-5.256-14.04-5.103-18.993,0.354c-4.157,4.581-4.934,13.094-1.893,18.59c1.502,2.715,3.643,4.321,6.622,4.805
				C258.356,430.541,260.714,430.931,263.114,430.724z"/>
			<path style="fill:#97A0A5;" d="M339.037,422.309c-0.382-0.264-0.699-0.278-0.897,0.006c-0.442,0.636-0.979,1.156-1.656,0.46
				c-0.657-0.675-0.43-1.606-0.159-2.398c0.286-0.836,0.901-1.018,1.598-0.399c0.311,0.276,0.533,0.192,0.758-0.049
				c0.613-0.656,1.204-0.611,1.729,0.078c0.398,0.523,0.469,1.15,0.232,1.751C340.304,422.612,339.657,422.593,339.037,422.309z"/>
			<path style="fill:#97A0A5;" d="M176.582,401.307c-0.053,0.743-0.207,1.486-1.11,1.375c-0.965-0.119-1.03-0.979-0.995-1.743
				c0.032-0.701,0.243-1.48,1.118-1.37C176.546,399.688,176.546,400.572,176.582,401.307z"/>
			<path style="fill:#97A0A5;" d="M268.365,416.649c-0.022,4.433-3.092,7.702-7.172,7.635c-3.203-0.052-6.225-3.332-6.229-6.762
				c-0.005-3.906,3.257-7.197,7.161-7.225C265.392,410.273,268.381,413.315,268.365,416.649z M265.913,416.665
				c-0.021-2.145-1.813-4.008-3.866-4.017c-2.534-0.011-4.855,2.34-4.782,4.844c0.051,1.743,2.871,4.71,4.444,4.676
				C263.847,422.122,265.94,419.383,265.913,416.665z"/>
		</g>
	</g>
</g>
<g id="designed_by_freepik">
	<g>
		<g>
			<path style="fill:#808080;" d="M174.17,488.368v-0.174c-0.236,0.27-0.468,0.49-0.697,0.658c-0.229,0.17-0.477,0.298-0.745,0.385
				c-0.267,0.09-0.559,0.132-0.876,0.132c-0.42,0-0.809-0.088-1.166-0.265c-0.357-0.178-0.667-0.432-0.927-0.761
				c-0.262-0.329-0.46-0.716-0.594-1.163c-0.135-0.445-0.202-0.927-0.202-1.445c0-1.096,0.268-1.951,0.803-2.563
				c0.535-0.611,1.239-0.917,2.113-0.917c0.505,0,0.931,0.087,1.278,0.26c0.347,0.173,0.685,0.441,1.015,0.8v-2.588
				c0-0.361,0.071-0.631,0.215-0.815c0.143-0.184,0.347-0.276,0.613-0.276c0.266,0,0.469,0.085,0.613,0.254
				c0.144,0.17,0.215,0.418,0.215,0.748v7.732c0,0.334-0.077,0.584-0.231,0.751c-0.154,0.166-0.353,0.25-0.597,0.25
				c-0.24,0-0.438-0.086-0.594-0.259C174.248,488.936,174.17,488.689,174.17,488.368z M170.721,485.793
				c0,0.475,0.074,0.88,0.221,1.214c0.148,0.334,0.35,0.585,0.607,0.754c0.257,0.169,0.537,0.255,0.841,0.255
				c0.308,0,0.59-0.081,0.845-0.242c0.255-0.16,0.458-0.407,0.61-0.738c0.152-0.331,0.228-0.747,0.228-1.243
				c0-0.467-0.076-0.868-0.228-1.206c-0.152-0.335-0.357-0.592-0.616-0.77c-0.259-0.177-0.543-0.265-0.851-0.265
				c-0.321,0-0.608,0.091-0.861,0.272c-0.253,0.182-0.448,0.442-0.587,0.783C170.791,484.948,170.721,485.343,170.721,485.793z"/>
			<path style="fill:#808080;" d="M181.901,486.237h-3.429c0.004,0.397,0.084,0.749,0.241,1.052
				c0.156,0.304,0.364,0.534,0.623,0.687c0.259,0.154,0.545,0.23,0.857,0.23c0.21,0,0.401-0.024,0.575-0.073
				c0.174-0.05,0.341-0.127,0.504-0.232c0.163-0.104,0.312-0.217,0.449-0.337c0.137-0.12,0.314-0.284,0.533-0.489
				c0.09-0.077,0.219-0.116,0.386-0.116c0.18,0,0.325,0.05,0.436,0.149c0.111,0.099,0.168,0.236,0.168,0.417
				c0,0.158-0.063,0.343-0.186,0.555c-0.125,0.213-0.312,0.416-0.562,0.611c-0.251,0.195-0.565,0.356-0.945,0.485
				c-0.378,0.129-0.814,0.192-1.307,0.192c-1.125,0-2.001-0.321-2.626-0.963c-0.625-0.642-0.937-1.513-0.937-2.614
				c0-0.518,0.077-1,0.231-1.442c0.154-0.443,0.379-0.823,0.674-1.14c0.296-0.317,0.659-0.559,1.092-0.729
				c0.432-0.169,0.912-0.253,1.438-0.253c0.685,0,1.272,0.143,1.762,0.433c0.491,0.289,0.858,0.662,1.102,1.119
				c0.243,0.459,0.366,0.926,0.366,1.401c0,0.442-0.126,0.727-0.379,0.858C182.716,486.171,182.36,486.237,181.901,486.237z
				 M178.472,485.241h3.179c-0.042-0.599-0.205-1.049-0.485-1.346c-0.281-0.298-0.65-0.446-1.108-0.446
				c-0.437,0-0.796,0.151-1.076,0.452C178.702,484.203,178.533,484.649,178.472,485.241z"/>
			<path style="fill:#808080;" d="M189.89,487.076c0,0.483-0.117,0.898-0.353,1.243c-0.235,0.344-0.583,0.606-1.044,0.784
				c-0.46,0.178-1.02,0.265-1.679,0.265c-0.629,0-1.169-0.096-1.618-0.289c-0.449-0.192-0.781-0.434-0.995-0.722
				c-0.214-0.29-0.321-0.58-0.321-0.872c0-0.192,0.068-0.357,0.206-0.494c0.137-0.136,0.31-0.205,0.52-0.205
				c0.184,0,0.325,0.045,0.423,0.135c0.099,0.09,0.193,0.217,0.282,0.378c0.18,0.314,0.396,0.546,0.646,0.701
				c0.25,0.154,0.591,0.231,1.024,0.231c0.351,0,0.639-0.079,0.864-0.234c0.224-0.158,0.337-0.336,0.337-0.537
				c0-0.308-0.116-0.532-0.35-0.674c-0.233-0.141-0.618-0.277-1.153-0.405c-0.604-0.149-1.095-0.307-1.474-0.472
				c-0.379-0.164-0.682-0.382-0.909-0.651c-0.227-0.27-0.34-0.602-0.34-0.996c0-0.35,0.105-0.682,0.315-0.995
				c0.21-0.312,0.519-0.562,0.929-0.748c0.408-0.186,0.901-0.28,1.479-0.28c0.454,0,0.862,0.048,1.223,0.143
				c0.362,0.092,0.665,0.22,0.906,0.379c0.242,0.158,0.426,0.333,0.552,0.526c0.126,0.193,0.189,0.381,0.189,0.565
				c0,0.201-0.067,0.366-0.202,0.495c-0.135,0.127-0.326,0.193-0.575,0.193c-0.18,0-0.333-0.052-0.459-0.155
				c-0.126-0.102-0.271-0.257-0.434-0.462c-0.133-0.171-0.288-0.309-0.469-0.411c-0.18-0.103-0.424-0.154-0.733-0.154
				c-0.317,0-0.58,0.066-0.79,0.203c-0.21,0.134-0.315,0.302-0.315,0.502c0,0.185,0.077,0.335,0.231,0.453
				c0.154,0.119,0.362,0.217,0.624,0.293c0.261,0.077,0.62,0.17,1.079,0.281c0.543,0.133,0.987,0.293,1.332,0.476
				c0.344,0.183,0.605,0.401,0.784,0.652C189.802,486.47,189.89,486.755,189.89,487.076z"/>
			<path style="fill:#808080;" d="M191.681,481.426c-0.244,0-0.453-0.076-0.626-0.225c-0.173-0.149-0.26-0.361-0.26-0.637
				c0-0.248,0.089-0.452,0.266-0.613c0.178-0.161,0.385-0.241,0.62-0.241c0.227,0,0.428,0.073,0.604,0.219
				c0.176,0.146,0.264,0.357,0.264,0.635c0,0.271-0.086,0.481-0.258,0.633C192.12,481.349,191.916,481.426,191.681,481.426z
				 M192.548,483.236v5.067c0,0.351-0.084,0.617-0.251,0.797c-0.167,0.179-0.379,0.269-0.636,0.269
				c-0.257,0-0.466-0.091-0.626-0.276c-0.161-0.184-0.241-0.448-0.241-0.79v-5.016c0-0.346,0.08-0.607,0.241-0.783
				c0.161-0.176,0.369-0.264,0.626-0.264c0.257,0,0.468,0.089,0.636,0.264C192.465,482.68,192.548,482.924,192.548,483.236z"/>
			<path style="fill:#808080;" d="M200.229,483.525v5.093c0,0.582-0.063,1.084-0.187,1.504c-0.123,0.419-0.323,0.766-0.597,1.039
				c-0.274,0.273-0.633,0.478-1.075,0.61c-0.443,0.133-0.994,0.199-1.654,0.199c-0.604,0-1.143-0.085-1.618-0.254
				c-0.475-0.17-0.841-0.388-1.098-0.655c-0.257-0.268-0.386-0.543-0.386-0.825c0-0.214,0.073-0.39,0.219-0.523
				c0.145-0.136,0.321-0.203,0.526-0.203c0.257,0,0.482,0.114,0.674,0.341c0.094,0.115,0.191,0.233,0.292,0.35
				c0.101,0.118,0.213,0.219,0.334,0.302c0.122,0.083,0.269,0.145,0.44,0.186c0.171,0.04,0.369,0.061,0.591,0.061
				c0.454,0,0.806-0.063,1.057-0.19c0.251-0.125,0.426-0.302,0.527-0.53c0.101-0.226,0.16-0.469,0.177-0.729
				c0.017-0.259,0.03-0.675,0.038-1.249c-0.27,0.378-0.581,0.665-0.935,0.862c-0.353,0.196-0.774,0.295-1.261,0.295
				c-0.587,0-1.099-0.151-1.539-0.45c-0.438-0.3-0.776-0.719-1.011-1.259c-0.236-0.54-0.353-1.161-0.353-1.868
				c0-0.526,0.071-1.003,0.215-1.426c0.144-0.425,0.348-0.782,0.613-1.073c0.265-0.291,0.572-0.51,0.918-0.658
				c0.347-0.147,0.728-0.221,1.143-0.221c0.496,0,0.927,0.096,1.291,0.285c0.363,0.192,0.702,0.491,1.014,0.897v-0.238
				c0-0.304,0.075-0.539,0.225-0.706c0.15-0.166,0.343-0.251,0.578-0.251c0.338,0,0.563,0.111,0.674,0.331
				C200.173,482.792,200.229,483.111,200.229,483.525z M195.149,485.748c0,0.711,0.155,1.248,0.465,1.612
				c0.31,0.364,0.712,0.546,1.204,0.546c0.291,0,0.566-0.078,0.825-0.234c0.259-0.156,0.47-0.393,0.633-0.706
				c0.162-0.315,0.244-0.697,0.244-1.146c0-0.715-0.157-1.272-0.472-1.67c-0.315-0.397-0.729-0.597-1.243-0.597
				c-0.501,0-0.902,0.19-1.204,0.572C195.299,484.504,195.149,485.046,195.149,485.748z"/>
			<path style="fill:#808080;" d="M203.015,483.211v0.212c0.308-0.407,0.645-0.706,1.011-0.896c0.366-0.19,0.786-0.286,1.262-0.286
				c0.462,0,0.876,0.102,1.24,0.302c0.363,0.202,0.636,0.487,0.815,0.853c0.116,0.215,0.191,0.447,0.225,0.695
				c0.034,0.249,0.052,0.565,0.052,0.951v3.262c0,0.351-0.081,0.617-0.241,0.797c-0.16,0.179-0.369,0.269-0.626,0.269
				c-0.261,0-0.473-0.091-0.636-0.276c-0.163-0.184-0.244-0.448-0.244-0.79v-2.922c0-0.578-0.081-1.02-0.241-1.327
				c-0.161-0.305-0.48-0.459-0.96-0.459c-0.312,0-0.597,0.093-0.854,0.279c-0.257,0.186-0.445,0.442-0.565,0.768
				c-0.086,0.261-0.128,0.748-0.128,1.464v2.196c0,0.355-0.083,0.623-0.247,0.8c-0.165,0.178-0.378,0.265-0.639,0.265
				c-0.253,0-0.46-0.091-0.623-0.276c-0.163-0.184-0.244-0.448-0.244-0.79v-5.067c0-0.334,0.073-0.584,0.218-0.748
				c0.146-0.164,0.345-0.248,0.597-0.248c0.154,0,0.294,0.037,0.418,0.11c0.124,0.073,0.224,0.182,0.298,0.327
				C202.978,482.823,203.015,483.001,203.015,483.211z"/>
			<path style="fill:#808080;" d="M213.681,486.237h-3.429c0.005,0.397,0.084,0.749,0.241,1.052
				c0.156,0.304,0.364,0.534,0.623,0.687c0.258,0.154,0.544,0.23,0.857,0.23c0.21,0,0.402-0.024,0.576-0.073
				c0.173-0.05,0.341-0.127,0.504-0.232c0.162-0.104,0.312-0.217,0.45-0.337c0.136-0.12,0.314-0.284,0.533-0.489
				c0.09-0.077,0.218-0.116,0.385-0.116c0.18,0,0.326,0.05,0.437,0.149c0.111,0.099,0.167,0.236,0.167,0.417
				c0,0.158-0.062,0.343-0.186,0.555c-0.124,0.213-0.312,0.416-0.562,0.611c-0.251,0.195-0.565,0.356-0.944,0.485
				c-0.379,0.129-0.815,0.192-1.307,0.192c-1.126,0-2.001-0.321-2.627-0.963c-0.624-0.642-0.937-1.513-0.937-2.614
				c0-0.518,0.077-1,0.231-1.442c0.154-0.443,0.379-0.823,0.675-1.14c0.295-0.317,0.659-0.559,1.092-0.729
				c0.432-0.169,0.912-0.253,1.439-0.253c0.685,0,1.272,0.143,1.762,0.433c0.491,0.289,0.858,0.662,1.102,1.119
				c0.244,0.459,0.366,0.926,0.366,1.401c0,0.442-0.126,0.727-0.379,0.858C214.495,486.171,214.14,486.237,213.681,486.237z
				 M210.252,485.241h3.179c-0.043-0.599-0.204-1.049-0.485-1.346c-0.281-0.298-0.65-0.446-1.108-0.446
				c-0.437,0-0.796,0.151-1.076,0.452C210.481,484.203,210.312,484.649,210.252,485.241z"/>
			<path style="fill:#808080;" d="M220.828,488.368v-0.174c-0.235,0.27-0.467,0.49-0.697,0.658c-0.229,0.17-0.477,0.298-0.745,0.385
				c-0.267,0.09-0.56,0.132-0.876,0.132c-0.42,0-0.809-0.088-1.166-0.265c-0.357-0.178-0.667-0.432-0.928-0.761
				c-0.262-0.329-0.459-0.716-0.594-1.163c-0.135-0.445-0.202-0.927-0.202-1.445c0-1.096,0.268-1.951,0.803-2.563
				c0.535-0.611,1.24-0.917,2.113-0.917c0.505,0,0.931,0.087,1.278,0.26c0.347,0.173,0.685,0.441,1.014,0.8v-2.588
				c0-0.361,0.072-0.631,0.216-0.815c0.143-0.184,0.348-0.276,0.614-0.276c0.265,0,0.469,0.085,0.613,0.254
				c0.143,0.17,0.215,0.418,0.215,0.748v7.732c0,0.334-0.077,0.584-0.231,0.751c-0.154,0.166-0.353,0.25-0.597,0.25
				c-0.24,0-0.438-0.086-0.594-0.259C220.906,488.936,220.828,488.689,220.828,488.368z M217.38,485.793
				c0,0.475,0.073,0.88,0.221,1.214c0.148,0.334,0.35,0.585,0.607,0.754c0.257,0.169,0.537,0.255,0.84,0.255
				c0.309,0,0.59-0.081,0.845-0.242c0.255-0.16,0.459-0.407,0.61-0.738c0.152-0.331,0.228-0.747,0.228-1.243
				c0-0.467-0.076-0.868-0.228-1.206c-0.152-0.335-0.357-0.592-0.616-0.77c-0.259-0.177-0.543-0.265-0.851-0.265
				c-0.321,0-0.608,0.091-0.86,0.272c-0.252,0.182-0.448,0.442-0.588,0.783C217.449,484.948,217.38,485.343,217.38,485.793z"/>
			<path style="fill:#808080;" d="M227.994,480.636v2.677c0.329-0.343,0.666-0.605,1.008-0.786c0.342-0.182,0.767-0.273,1.272-0.273
				c0.582,0,1.092,0.138,1.532,0.413c0.438,0.277,0.779,0.677,1.021,1.201c0.242,0.524,0.363,1.147,0.363,1.866
				c0,0.531-0.068,1.017-0.202,1.461c-0.135,0.443-0.331,0.827-0.588,1.152c-0.257,0.325-0.569,0.578-0.934,0.755
				c-0.366,0.178-0.77,0.265-1.211,0.265c-0.27,0-0.524-0.032-0.761-0.096c-0.238-0.063-0.441-0.147-0.607-0.254
				c-0.166-0.104-0.309-0.212-0.427-0.324c-0.118-0.111-0.273-0.279-0.466-0.502v0.174c0,0.329-0.079,0.578-0.238,0.749
				c-0.158,0.169-0.359,0.252-0.604,0.252c-0.248,0-0.446-0.083-0.594-0.252c-0.148-0.17-0.222-0.419-0.222-0.749v-7.656
				c0-0.355,0.072-0.625,0.215-0.806c0.144-0.182,0.344-0.273,0.601-0.273c0.27,0,0.477,0.086,0.623,0.259
				C227.921,480.068,227.994,480.314,227.994,480.636z M228.077,485.844c0,0.698,0.16,1.233,0.478,1.608
				c0.319,0.375,0.738,0.563,1.256,0.563c0.441,0,0.821-0.191,1.14-0.576c0.319-0.383,0.478-0.932,0.478-1.647
				c0-0.462-0.066-0.861-0.199-1.194c-0.133-0.335-0.321-0.592-0.565-0.775c-0.244-0.181-0.529-0.272-0.854-0.272
				c-0.334,0-0.632,0.091-0.893,0.272c-0.261,0.182-0.466,0.445-0.617,0.79C228.152,484.958,228.077,485.369,228.077,485.844z"/>
			<path style="fill:#808080;" d="M235.463,489.588l0.16-0.392l-2.158-5.433c-0.132-0.312-0.199-0.539-0.199-0.681
				c0-0.15,0.039-0.289,0.116-0.417c0.077-0.129,0.183-0.232,0.318-0.308c0.135-0.078,0.275-0.117,0.421-0.117
				c0.252,0,0.443,0.081,0.572,0.242c0.129,0.16,0.242,0.39,0.34,0.689l1.484,4.316l1.406-4.013c0.111-0.324,0.212-0.58,0.302-0.765
				c0.09-0.184,0.185-0.308,0.286-0.371c0.1-0.065,0.243-0.098,0.427-0.098c0.133,0,0.26,0.036,0.382,0.107
				c0.122,0.071,0.216,0.166,0.282,0.285c0.066,0.12,0.1,0.246,0.1,0.379c-0.018,0.081-0.045,0.197-0.084,0.347
				c-0.039,0.149-0.085,0.302-0.141,0.456l-2.286,5.985c-0.197,0.527-0.39,0.939-0.578,1.239c-0.189,0.299-0.437,0.531-0.748,0.69
				c-0.311,0.161-0.729,0.242-1.256,0.242c-0.513,0-0.899-0.055-1.155-0.166c-0.258-0.112-0.386-0.316-0.386-0.611
				c0-0.201,0.06-0.356,0.183-0.465c0.122-0.109,0.303-0.165,0.542-0.165c0.094,0,0.187,0.014,0.277,0.04
				c0.111,0.025,0.207,0.039,0.289,0.039c0.201,0,0.36-0.03,0.476-0.09c0.115-0.059,0.219-0.163,0.311-0.312
				C235.237,490.093,235.343,489.875,235.463,489.588z"/>
		</g>
		<g>
			<path style="fill:#808080;" d="M260.861,482.393h0.418v-0.526c0-0.551,0.067-0.985,0.207-1.31
				c0.138-0.323,0.376-0.559,0.708-0.706c0.331-0.147,0.786-0.221,1.364-0.221c1.027,0,1.537,0.248,1.537,0.753
				c0,0.162-0.054,0.301-0.163,0.416c-0.104,0.115-0.232,0.174-0.377,0.174c-0.067,0-0.188-0.013-0.357-0.04
				c-0.16-0.023-0.306-0.038-0.421-0.038c-0.316,0-0.518,0.095-0.612,0.281c-0.086,0.186-0.132,0.452-0.132,0.801v0.417h0.428
				c0.67,0,1.002,0.2,1.002,0.605c0,0.283-0.086,0.467-0.265,0.544c-0.177,0.077-0.422,0.115-0.736,0.115h-0.428v4.646
				c0,0.346-0.081,0.609-0.25,0.79c-0.163,0.185-0.374,0.275-0.637,0.275c-0.248,0-0.454-0.09-0.621-0.275
				c-0.165-0.181-0.246-0.444-0.246-0.79v-4.646h-0.483c-0.263,0-0.462-0.056-0.604-0.177c-0.141-0.115-0.213-0.269-0.213-0.458
				C259.98,482.601,260.274,482.393,260.861,482.393"/>
			<path style="fill:#808080;" d="M266.601,486.838v1.465c0,0.354-0.09,0.622-0.253,0.798c-0.167,0.18-0.378,0.267-0.634,0.267
				c-0.258,0-0.465-0.089-0.627-0.271c-0.16-0.179-0.244-0.444-0.244-0.794v-4.883c0-0.788,0.284-1.183,0.852-1.183
				c0.293,0,0.503,0.091,0.631,0.276c0.128,0.185,0.199,0.456,0.215,0.817c0.208-0.361,0.422-0.632,0.641-0.817
				c0.225-0.185,0.516-0.276,0.885-0.276c0.371,0,0.725,0.091,1.072,0.276c0.349,0.185,0.522,0.431,0.522,0.733
				c0,0.213-0.075,0.392-0.221,0.529c-0.149,0.141-0.307,0.211-0.477,0.211c-0.067,0-0.224-0.042-0.468-0.121
				c-0.247-0.077-0.466-0.117-0.651-0.117c-0.257,0-0.468,0.069-0.63,0.201c-0.164,0.139-0.291,0.336-0.382,0.6
				c-0.087,0.267-0.148,0.585-0.184,0.949C266.616,485.864,266.601,486.312,266.601,486.838"/>
			<path style="fill:#808080;" d="M274.662,486.234h-3.431c0.006,0.397,0.084,0.751,0.24,1.054c0.159,0.302,0.365,0.532,0.625,0.687
				c0.26,0.153,0.543,0.23,0.858,0.23c0.21,0,0.401-0.022,0.574-0.075c0.172-0.047,0.341-0.125,0.504-0.23
				c0.164-0.104,0.311-0.216,0.449-0.338c0.137-0.118,0.316-0.281,0.534-0.487c0.091-0.076,0.219-0.117,0.384-0.117
				c0.182,0,0.326,0.05,0.439,0.15c0.112,0.099,0.164,0.237,0.164,0.417c0,0.159-0.06,0.343-0.181,0.553
				c-0.127,0.215-0.313,0.417-0.565,0.613c-0.253,0.192-0.567,0.356-0.945,0.483c-0.378,0.129-0.816,0.193-1.306,0.193
				c-1.13,0-2.004-0.32-2.628-0.961c-0.625-0.644-0.941-1.517-0.941-2.615c0-0.519,0.079-1,0.235-1.444
				c0.152-0.445,0.377-0.823,0.676-1.141c0.295-0.318,0.656-0.56,1.09-0.729c0.431-0.169,0.911-0.254,1.439-0.254
				c0.683,0,1.272,0.145,1.762,0.437c0.489,0.286,0.861,0.66,1.101,1.119c0.244,0.46,0.367,0.925,0.367,1.402
				c0,0.438-0.128,0.724-0.38,0.856C275.475,486.169,275.12,486.234,274.662,486.234 M271.231,485.237h3.179
				c-0.042-0.598-0.201-1.048-0.483-1.343c-0.283-0.299-0.648-0.447-1.109-0.447c-0.436,0-0.796,0.149-1.076,0.453
				C271.461,484.201,271.29,484.647,271.231,485.237"/>
			<path style="fill:#808080;" d="M281.956,486.234h-3.43c0.004,0.397,0.085,0.751,0.24,1.054c0.156,0.302,0.364,0.532,0.623,0.687
				c0.259,0.153,0.545,0.23,0.86,0.23c0.208,0,0.401-0.022,0.571-0.075c0.175-0.047,0.342-0.125,0.507-0.23
				c0.164-0.104,0.311-0.216,0.449-0.338c0.135-0.118,0.314-0.281,0.533-0.487c0.091-0.076,0.22-0.117,0.384-0.117
				c0.181,0,0.327,0.05,0.44,0.15c0.112,0.099,0.163,0.237,0.163,0.417c0,0.159-0.059,0.343-0.185,0.553
				c-0.119,0.215-0.308,0.417-0.561,0.613c-0.25,0.192-0.568,0.356-0.943,0.483c-0.377,0.129-0.817,0.193-1.308,0.193
				c-1.127,0-2.001-0.32-2.628-0.961c-0.625-0.644-0.939-1.517-0.939-2.615c0-0.519,0.079-1,0.235-1.444
				c0.153-0.445,0.378-0.823,0.673-1.141c0.294-0.318,0.658-0.56,1.091-0.729c0.431-0.169,0.913-0.254,1.44-0.254
				c0.682,0,1.27,0.145,1.767,0.437c0.487,0.286,0.856,0.66,1.096,1.119c0.243,0.46,0.368,0.925,0.368,1.402
				c0,0.438-0.13,0.724-0.38,0.856C282.767,486.169,282.413,486.234,281.956,486.234 M278.525,485.237h3.179
				c-0.043-0.598-0.205-1.048-0.483-1.343c-0.285-0.299-0.65-0.447-1.111-0.447c-0.436,0-0.795,0.149-1.077,0.453
				C278.754,484.201,278.582,484.647,278.525,485.237"/>
			<path style="fill:#808080;" d="M285.796,483.224v0.21c0.329-0.407,0.672-0.705,1.031-0.895c0.351-0.192,0.756-0.289,1.205-0.289
				c0.537,0,1.038,0.141,1.492,0.418c0.454,0.28,0.81,0.686,1.074,1.221c0.263,0.538,0.396,1.17,0.396,1.903
				c0,0.538-0.076,1.035-0.227,1.488c-0.151,0.452-0.363,0.829-0.628,1.136c-0.266,0.304-0.578,0.542-0.94,0.707
				c-0.367,0.163-0.751,0.246-1.168,0.246c-0.499,0-0.922-0.101-1.261-0.302c-0.34-0.197-0.664-0.496-0.975-0.883v2.632
				c0,0.767-0.281,1.156-0.841,1.156c-0.331,0-0.547-0.099-0.657-0.298c-0.102-0.201-0.158-0.489-0.158-0.873v-7.569
				c0-0.334,0.072-0.58,0.217-0.749c0.145-0.161,0.346-0.246,0.598-0.246c0.25,0,0.45,0.085,0.605,0.253
				C285.719,482.662,285.796,482.903,285.796,483.224 M289.234,485.772c0-0.463-0.072-0.861-0.213-1.193
				c-0.141-0.333-0.337-0.586-0.586-0.762c-0.248-0.178-0.529-0.268-0.833-0.268c-0.483,0-0.892,0.192-1.223,0.57
				c-0.333,0.383-0.5,0.944-0.5,1.685c0,0.695,0.165,1.24,0.497,1.628c0.329,0.388,0.734,0.58,1.226,0.58
				c0.29,0,0.561-0.086,0.809-0.252c0.251-0.17,0.45-0.423,0.598-0.761C289.158,486.659,289.234,486.25,289.234,485.772"/>
			<path style="fill:#808080;" d="M292.76,481.422c-0.245,0-0.452-0.077-0.624-0.227c-0.176-0.151-0.262-0.36-0.262-0.633
				c0-0.249,0.089-0.453,0.268-0.616c0.177-0.158,0.383-0.24,0.618-0.24c0.23,0,0.43,0.072,0.604,0.216
				c0.176,0.147,0.264,0.361,0.264,0.64c0,0.27-0.086,0.481-0.256,0.633C293.201,481.344,292.998,481.422,292.76,481.422
				 M293.629,483.232v5.073c0,0.348-0.084,0.613-0.25,0.792c-0.169,0.182-0.379,0.271-0.637,0.271s-0.463-0.09-0.627-0.275
				c-0.158-0.186-0.24-0.449-0.24-0.788v-5.022c0-0.345,0.083-0.605,0.24-0.78c0.164-0.179,0.37-0.265,0.627-0.265
				s0.467,0.086,0.637,0.265C293.545,482.677,293.629,482.923,293.629,483.232"/>
			<path style="fill:#808080;" d="M299.281,488.568l-1.544-2.547l-0.952,0.899v1.397c0,0.337-0.09,0.596-0.268,0.777
				c-0.174,0.185-0.383,0.275-0.613,0.275c-0.269,0-0.483-0.089-0.636-0.271c-0.153-0.179-0.232-0.444-0.232-0.794v-7.48
				c0-0.388,0.077-0.684,0.224-0.888c0.151-0.207,0.368-0.306,0.645-0.306c0.27,0,0.482,0.092,0.642,0.278
				c0.158,0.183,0.239,0.455,0.239,0.813v4.255l1.972-2.071c0.245-0.255,0.428-0.433,0.559-0.526
				c0.128-0.094,0.283-0.141,0.466-0.141c0.22,0,0.401,0.07,0.551,0.209c0.143,0.139,0.217,0.315,0.217,0.523
				c0,0.256-0.239,0.601-0.713,1.029l-0.931,0.854l1.798,2.828c0.131,0.212,0.229,0.368,0.287,0.477
				c0.057,0.108,0.088,0.216,0.088,0.313c0,0.279-0.077,0.496-0.23,0.659c-0.152,0.16-0.354,0.24-0.599,0.24
				c-0.214,0-0.381-0.055-0.496-0.174C299.637,489.078,299.477,488.868,299.281,488.568"/>
			<path style="fill:#808080;" d="M303.091,489.368c-0.265,0-0.492-0.085-0.685-0.258c-0.192-0.168-0.29-0.409-0.29-0.72
				c0-0.26,0.093-0.486,0.277-0.672c0.186-0.189,0.411-0.283,0.681-0.283c0.269,0,0.497,0.094,0.691,0.279
				c0.189,0.186,0.285,0.414,0.285,0.677c0,0.306-0.096,0.547-0.285,0.717C303.572,489.283,303.348,489.368,303.091,489.368"/>
			<path style="fill:#808080;" d="M311.813,487.198c0,0.217-0.065,0.452-0.197,0.699c-0.129,0.25-0.33,0.485-0.599,0.71
				c-0.267,0.225-0.603,0.407-1.011,0.543c-0.406,0.137-0.866,0.207-1.373,0.207c-1.086,0-1.933-0.317-2.541-0.947
				c-0.606-0.632-0.91-1.48-0.91-2.542c0-0.722,0.138-1.356,0.419-1.91c0.275-0.551,0.679-0.979,1.204-1.281
				c0.527-0.302,1.16-0.453,1.889-0.453c0.456,0,0.871,0.067,1.253,0.199c0.379,0.132,0.698,0.305,0.963,0.514
				c0.262,0.213,0.464,0.435,0.602,0.671c0.14,0.238,0.208,0.46,0.208,0.667c0,0.209-0.077,0.387-0.232,0.533
				c-0.159,0.145-0.349,0.219-0.567,0.219c-0.148,0-0.269-0.038-0.366-0.112c-0.097-0.075-0.206-0.196-0.324-0.366
				c-0.215-0.324-0.437-0.569-0.673-0.73c-0.232-0.164-0.528-0.244-0.888-0.244c-0.515,0-0.936,0.201-1.253,0.607
				c-0.316,0.403-0.475,0.96-0.475,1.659c0,0.33,0.042,0.635,0.123,0.911c0.079,0.275,0.197,0.511,0.352,0.706
				c0.156,0.194,0.341,0.341,0.559,0.442c0.219,0.104,0.46,0.152,0.719,0.152c0.353,0,0.654-0.081,0.904-0.244
				c0.254-0.162,0.475-0.411,0.667-0.745c0.107-0.197,0.221-0.35,0.344-0.462c0.123-0.111,0.277-0.168,0.457-0.168
				c0.214,0,0.392,0.083,0.531,0.245C311.741,486.84,311.813,487.015,311.813,487.198"/>
			<path style="fill:#808080;" d="M319.379,485.805c0,0.52-0.083,1.004-0.24,1.446c-0.167,0.441-0.4,0.82-0.71,1.135
				c-0.308,0.317-0.678,0.56-1.104,0.73c-0.432,0.168-0.912,0.253-1.446,0.253c-0.531,0-1.01-0.086-1.434-0.259
				c-0.421-0.168-0.792-0.415-1.099-0.731c-0.312-0.323-0.547-0.699-0.711-1.134c-0.155-0.435-0.237-0.916-0.237-1.441
				c0-0.532,0.084-1.018,0.242-1.459c0.164-0.442,0.398-0.82,0.702-1.132c0.305-0.312,0.672-0.552,1.103-0.723
				c0.435-0.168,0.913-0.253,1.434-0.253c0.53,0,1.013,0.085,1.446,0.258c0.431,0.17,0.8,0.416,1.111,0.73
				c0.31,0.321,0.543,0.696,0.703,1.13C319.298,484.796,319.379,485.275,319.379,485.805 M317.619,485.805
				c0-0.716-0.158-1.272-0.472-1.669c-0.313-0.403-0.737-0.601-1.267-0.601c-0.343,0-0.646,0.09-0.908,0.267
				c-0.261,0.177-0.46,0.439-0.602,0.787c-0.141,0.347-0.213,0.753-0.213,1.216c0,0.459,0.069,0.857,0.209,1.199
				c0.141,0.345,0.339,0.606,0.599,0.788c0.261,0.18,0.565,0.273,0.915,0.273c0.53,0,0.954-0.201,1.267-0.603
				C317.461,487.063,317.619,486.509,317.619,485.805"/>
			<path style="fill:#808080;" d="M326.068,485.933v2.33c0,0.37-0.081,0.643-0.25,0.829c-0.169,0.185-0.386,0.276-0.661,0.276
				c-0.266,0-0.483-0.091-0.643-0.276c-0.167-0.186-0.252-0.46-0.252-0.829v-2.793c0-0.442-0.014-0.786-0.043-1.032
				c-0.031-0.238-0.114-0.442-0.245-0.596c-0.133-0.159-0.344-0.238-0.629-0.238c-0.575,0-0.951,0.197-1.134,0.596
				c-0.181,0.39-0.275,0.955-0.275,1.695v2.368c0,0.364-0.083,0.64-0.244,0.827c-0.168,0.184-0.384,0.278-0.652,0.278
				c-0.267,0-0.485-0.094-0.654-0.278c-0.17-0.188-0.254-0.464-0.254-0.827v-5.017c0-0.33,0.075-0.581,0.226-0.751
				c0.155-0.173,0.356-0.258,0.602-0.258c0.241,0,0.44,0.083,0.603,0.24c0.16,0.161,0.24,0.383,0.24,0.666v0.165
				c0.306-0.361,0.632-0.629,0.977-0.798c0.349-0.176,0.732-0.261,1.158-0.261c0.44,0,0.819,0.089,1.134,0.264
				c0.318,0.176,0.577,0.442,0.784,0.795c0.297-0.357,0.615-0.623,0.953-0.798c0.338-0.174,0.712-0.261,1.124-0.261
				c0.478,0,0.893,0.097,1.24,0.284c0.345,0.188,0.604,0.46,0.776,0.808c0.149,0.32,0.223,0.818,0.223,1.499v3.423
				c0,0.37-0.082,0.643-0.248,0.829c-0.166,0.185-0.389,0.276-0.662,0.276c-0.267,0-0.483-0.094-0.652-0.278
				c-0.169-0.188-0.254-0.464-0.254-0.827v-2.949c0-0.378-0.016-0.679-0.047-0.905c-0.032-0.228-0.119-0.419-0.259-0.573
				c-0.143-0.154-0.359-0.233-0.645-0.233c-0.231,0-0.45,0.073-0.658,0.209c-0.207,0.134-0.37,0.322-0.487,0.549
				C326.134,484.658,326.068,485.183,326.068,485.933"/>
		</g>
		<g>
			<path style="fill:#808080;" d="M244.452,485.379c-0.001-0.003-0.001-0.006-0.001-0.012
				C244.451,485.374,244.451,485.377,244.452,485.379z"/>
			<path style="fill:#808080;" d="M244.541,485.941c0.001,0,0.001,0,0.002,0c-0.034-0.16-0.06-0.318-0.08-0.475
				C244.483,485.624,244.509,485.782,244.541,485.941z"/>
			<path style="fill:#808080;" d="M245.121,487.568c-0.004-0.007-0.007-0.015-0.012-0.022
				C245.114,487.553,245.117,487.561,245.121,487.568z"/>
			<path style="fill:#808080;" d="M245.066,487.459c-0.015-0.03-0.03-0.061-0.044-0.091
				C245.036,487.401,245.05,487.43,245.066,487.459z"/>
			<path style="fill:#808080;" d="M244.704,486.567c0.086,0.271,0.189,0.533,0.309,0.783c-0.122-0.255-0.223-0.518-0.307-0.783
				C244.705,486.567,244.704,486.567,244.704,486.567z"/>
			<path style="fill:#808080;" d="M251.239,478.661c0.339,0,0.589,0.026,0.876,0.075l0.081-0.516c0,0-0.792-0.243-1.833-0.158
				l-0.082-0.281c0.324-0.069,0.566-0.356,0.566-0.7c0-0.394-0.32-0.712-0.714-0.712s-0.714,0.318-0.714,0.712
				c0,0.344,0.242,0.631,0.565,0.7l0.09,0.313c-1.105,0.152-1.985,0.582-1.985,0.582l0.156,0.477
				c0.669-0.223,1.248-0.358,1.774-0.415C250.535,478.685,250.923,478.661,251.239,478.661z"/>
			<path style="fill:#808080;" d="M245.108,481.27l0.004-0.005c0.026-0.034,0.051-0.065,0.077-0.097l-0.212-0.152l-0.33-0.241
				c-0.019,0.026-0.538,0.503-0.948,1.385c-0.017-0.028-0.038-0.055-0.061-0.081c-0.123-0.135-0.294-0.203-0.513-0.199
				c-0.003,0-0.006,0-0.01,0c-0.135,0-0.228-0.045-0.289-0.099c0.061-0.077,0.097-0.173,0.097-0.279
				c0-0.249-0.203-0.452-0.453-0.452c-0.249,0-0.452,0.203-0.452,0.452c0,0.25,0.203,0.452,0.452,0.452
				c0.039,0,0.076-0.007,0.113-0.014c0.111,0.124,0.287,0.231,0.546,0.226c0.133-0.001,0.23,0.033,0.296,0.106
				c0.075,0.082,0.1,0.2,0.108,0.289c-0.001,0.001-0.001,0.003-0.002,0.003c-0.295,0.805-0.21,1.805-0.21,1.805l0.715,0.029
				c0.014-0.365,0.067-1.002,0.251-1.508C244.644,481.909,245.09,481.296,245.108,481.27z"/>
			<path style="fill:#808080;" d="M257.459,479.259c-0.249,0-0.452,0.201-0.452,0.452c0,0.038,0.006,0.075,0.016,0.112
				c-0.124,0.112-0.232,0.289-0.228,0.547c0.002,0.134-0.032,0.23-0.104,0.296c-0.057,0.05-0.129,0.078-0.2,0.095
				c-0.532-0.746-1.187-1.201-1.187-1.201l-0.513,0.55c0.388,0.352,0.784,0.794,1.169,1.346c0.266,0.381,0.54,0.872,0.768,1.362
				l0.693-0.329c0,0-0.316-0.781-0.761-1.482c0.077-0.027,0.155-0.069,0.224-0.131c0.135-0.122,0.202-0.295,0.198-0.512
				c-0.001-0.14,0.045-0.235,0.1-0.298c0.077,0.059,0.174,0.097,0.279,0.097c0.251,0,0.453-0.203,0.453-0.452
				C257.912,479.46,257.71,479.259,257.459,479.259z"/>
			<path style="fill:#808080;" d="M255.663,485.481c-0.953,0.464-2.521,1.078-4.585,1.365c-0.81,0.112-1.595,0.153-2.318,0.153
				c-0.94,0-1.771-0.069-2.409-0.151c-0.728-0.091-1.296-0.203-1.645-0.282c0.084,0.265,0.185,0.528,0.307,0.783
				c0.002,0.006,0.005,0.014,0.009,0.018c0.014,0.03,0.029,0.061,0.044,0.091c0.014,0.03,0.029,0.058,0.044,0.086
				c0.004,0.008,0.008,0.016,0.012,0.022c0.205,0.386,0.451,0.74,0.731,1.047c0.974,1.065,1.966,1.233,1.975,1.235l0.015,0.002
				l0.015,0.005c0.009,0.004,0.888,0.288,2.226,0.288c1.315,0,2.606-0.265,3.836-0.79c0.911-0.466,1.773-1.174,2.2-1.805
				c0.33-0.488,0.569-1.009,0.71-1.55c0.075-0.288,0.135-0.749,0.1-1.234C256.66,484.945,256.236,485.202,255.663,485.481z"/>
			<path style="fill:#808080;" d="M245.414,481.496c-0.028,0.04-0.441,0.625-0.768,1.523c-0.245,0.672-0.234,1.652-0.234,1.663
				v0.002c0,0.23,0.013,0.458,0.038,0.683c0,0.006,0,0.009,0.001,0.012c0.003,0.03,0.008,0.057,0.01,0.087
				c0.021,0.156,0.047,0.315,0.08,0.475c0.473,0.12,3.299,0.779,6.456,0.339c1.979-0.276,3.482-0.861,4.394-1.303
				c0.758-0.368,1.245-0.701,1.433-0.838c-0.188-0.695-0.705-1.785-1.179-2.465c-1.356-1.937-2.818-2.435-3.568-2.558
				c-0.286-0.047-0.516-0.074-0.84-0.074c-0.303,0-0.678,0.025-1.179,0.077c-0.503,0.052-1.063,0.184-1.712,0.403
				c-0.911,0.305-1.736,0.783-2.385,1.385l-0.022,0.021C245.845,481.016,245.645,481.202,245.414,481.496z M253.71,481.045
				c0.65,0,1.179,0.528,1.179,1.179c0,0.65-0.529,1.179-1.179,1.179c-0.65,0-1.178-0.529-1.178-1.179
				C252.532,481.573,253.06,481.045,253.71,481.045z M248.137,480.998c1.053,0,1.905,0.853,1.905,1.905
				c0,1.051-0.852,1.903-1.905,1.903c-1.051,0-1.904-0.852-1.904-1.903C246.233,481.851,247.086,480.998,248.137,480.998z"/>
		</g>
	</g>
</g>
</svg>
